<svg xmlns="http://www.w3.org/2000/svg" version="1.1" width="98" height="66" style=""><rect id="backgroundrect" width="100%" height="100%" x="0" y="0" fill="none" stroke="none" class="" style=""/><g class="currentLayer" style=""><title>Layer 1</title><path fill="#9e4f28" fill-opacity="1" stroke="none" stroke-opacity="1" stroke-width="1" stroke-dasharray="none" stroke-linejoin="miter" stroke-linecap="butt" stroke-dashoffset="" fill-rule="evenodd" opacity="1" marker-start="" marker-mid="" marker-end="" id="svg_6" d="M 1.067780707256059 64.7464446502182 C 1.067780707256059 64.7464446502182 2.323010852813894 57.63347382539045 2.259414225941423 57.57322175732218 C 2.323010852813894 57.63347382539045 9.352299667937782 54.369875446940085 9.288702928870293 54.30962343096235 C 9.352299667937782 54.369875446940085 21.15146303618145 54.788285495459355 21.087866108786613 54.728033472803354 C 21.15146303618145 54.788285495459355 24.833471463151103 57.38242779627888 24.76987447698745 57.32217573221757 C 24.833471463151103 57.38242779627888 27.09288572515521 61.06443622324854 27.029288702928874 61.00418410041841 C 27.09288572515521 61.06443622324854 25.921337589301228 64.83012665992206 25.85774058577406 64.76987447698745 C 25.921337589301228 64.83012665992206 24.164015385520255 65.58326474725675 24.100418410041843 65.52301255230125" style="color: rgb(158, 79, 40);"/><path fill="undefined" fill-opacity="1" stroke="none" stroke-opacity="1" stroke-width="1" stroke-dasharray="none" stroke-linejoin="miter" stroke-linecap="butt" stroke-dashoffset="" fill-rule="evenodd" opacity="1" marker-start="" marker-mid="" marker-end="" id="svg_8" d="M 69.26861861589853 59.97657009709842 C 69.26861861589853 59.97657009709842 74.6242672369453 54.202511427532365 74.56066945606695 54.14225941422595" style="color: rgb(158, 79, 40);"/><path fill="#9e4f28" fill-opacity="1" stroke="none" stroke-opacity="1" stroke-width="1" stroke-dasharray="none" stroke-linejoin="miter" stroke-linecap="butt" stroke-dashoffset="" fill-rule="evenodd" opacity="1" marker-start="" marker-mid="" marker-end="" id="svg_2" d="M 69.43598263530625 59.056067990356006 L 76.06694560669456 54.728033472803354 L 92.71966527196653 55.39748953974896 L 96.23430962343097 60.00000000000001 L 96.23430962343097 65.69037656903767 L 87.61506276150628 65.77405857740587 L 72.55230125523013 65.85774058577407" style="color: rgb(158, 79, 40);"/><path d="M3.662468849088404,53.243770567045104 C3.376137153203292,53.556714358383 3.141865765660934,54.10066756659938 3.141865765660934,54.45287157903237 C3.1421260672026414,54.868233338444455 2.6623903258242247,55.55528720760899 1.775282671663818,56.409623757961405 L0.40869957766671083,57.72654813078236 L0.3201970534840239,62.17063446213602 L0.2319548308430588,66.61500528784543 L13.140047982885513,66.61500528784543 C23.750980029304245,66.61500528784543 26.048401436469682,66.54729563117414 26.048401436469682,66.23406734548051 C26.048401436469682,66.02439500528412 26.63407990532558,65.27247642300594 27.349909145038357,64.56266300538046 L28.65141685360704,63.27219660764537 L28.65141685360704,60.62241617808079 L28.65141685360704,57.972351254160465 L27.363444825207463,56.67135856526218 C26.580718089274264,55.88074875060039 25.94245870899218,54.930253108000514 25.736560189496615,54.248035642883934 C25.497343072661693,53.45600335644333 25.206065647484035,53.06738406647284 24.746893727901,52.92855082086114 C24.388979108044612,52.82015847131592 19.615569436098134,52.71887848066475 14.139605903066261,52.703231291097865 C4.512093081242036,52.67563533858897 4.165892030762767,52.69355848300195 3.662468849088404,53.243770567045104 M72.4986909522024,53.06880653825164 C71.91613610184706,53.35074044481149 71.61939234429337,53.762119283242946 71.38720336908474,54.60962796905707 C71.17687972338004,55.37662475219064 70.65940025845313,56.160975691025676 69.85038306680687,56.93935224838971 C68.67173768592704,58.07306225610013 68.62696582075228,58.174911235462815 68.52414671177536,59.93849174682964 C68.37941905458251,62.42098949520632 68.55434169061417,62.98172787041265 69.9050463905667,64.3655084168376 C70.54512788164081,65.02126790686836 71.13809479366469,65.79566154325171 71.22243249317995,66.08641477484018 C71.3695028642482,66.59253023374025 71.94138535139331,66.61500528784543 84.63368852535504,66.61500528784543 L97.89162694946071,66.61500528784543 L97.89162694946071,62.33393422234324 L97.89162694946071,58.0531476511968 L97.17579770974797,57.32085917946617 C96.78222177867681,56.91801517170759 96.19758451598776,56.39824398373095 95.87663271505471,56.165527600717844 C95.55594121566341,55.93252672334902 95.17433915551103,55.2588440889053 95.0288305936931,54.668518300699745 C94.55716420010776,52.75358679206767 94.97650998380863,52.82385689794082 83.60055170629323,52.75045735415431 C75.4000119361437,52.69754140398262 73.13070309548331,52.76269061145206 72.4986909522024,53.06880653825164 M23.168685480490627,56.44859948470076 C23.52373678338815,56.645185084532095 23.894145877246796,57.18373289998902 24.009459460225976,57.67164072012036 C24.152365006626827,58.27448425997941 24.51860927581805,58.71658848883312 25.197215395065765,59.10577676751514 C25.97161248166413,59.55015695121491 26.195471807537935,59.857979844149085 26.259245685257806,60.566939778707265 C26.330568307687365,61.362385997417 26.221241660167593,61.531375644739455 25.30498023333526,62.04232750768749 C24.560778125575677,62.45712027838806 24.22290672443125,62.8551278820987 24.101345904450937,63.45939389373656 C23.668985043664414,65.61159369507388 21.549609891031178,65.68072582352399 21.221369646930146,63.553277031137924 C20.95820478825757,61.848586851413764 20.828314318942418,61.49410688413467 20.466234874418614,61.49410688413467 C19.947193600241427,61.49410688413467 19.43908499081621,62.304915798055546 19.15041058105568,63.593675229656085 C18.949978393936103,64.48840997852665 18.721693941853168,64.81984590298906 18.156579294792625,65.0357771190122 C17.19554600278552,65.40305933230057 16.05802826549649,64.74559287613523 15.949482522601874,63.76067341648822 C15.856294570668354,62.91231124760681 15.368229179955092,61.49410688413467 15.169619103627513,61.49410688413467 C14.789839154267176,61.49410688413467 14.074530517637834,62.50377735273297 14.074530517637834,63.03948022463227 C14.074530517637834,64.06280642230713 13.328766600627974,64.95128229535096 12.552547403237629,64.85313174261319 C11.96218350663087,64.77859422140362 11.816154341729458,64.56323199409199 11.546481944514033,63.36835569989282 C11.37286081619096,62.59965195062469 11.12114922535378,61.85086280625987 10.986833629829494,61.70406371868681 C10.562021513752672,61.2397689300837 9.657994259380873,61.77604079069453 9.510142983687476,62.580021840077116 C9.210015306091531,64.21273494779358 8.970277586173186,64.76408500925977 8.518394109758145,64.85910612408416 C7.888204077269189,64.99168049386911 7.046388891366968,64.11771383296916 7.046388891366968,63.330802444932274 C7.046388891366968,62.98115888170113 6.819666248534304,62.39282455398592 6.542705408150878,62.02355088020721 C6.095247057944978,61.427250710530664 5.995551567468608,61.39965475802179 5.653255040115053,61.77860123989638 C5.441109283618362,62.01330908339979 5.1670117601937955,62.78144384395641 5.043889130963203,63.48556737446664 C4.84059362688477,64.649149289532 4.746104167242688,64.77375781735566 4.006066884150523,64.85284724825742 C2.896141110283162,64.97176588896579 2.3552345066020197,64.09381630708516 2.3791822484396783,62.213024121144514 C2.403910894902496,60.2835834003686 2.5965340357706546,59.86082478770671 3.783248764443581,59.13081227082215 C4.46315639139985,58.7128900622082 4.866623781056152,58.22526673643262 5.00588510587299,57.65371757570735 C5.120417784227025,57.1845863830563 5.4142982248218425,56.640348680484166 5.659241975574462,56.44461656372009 C6.292555626563976,55.93878559917578 22.254766767533688,55.94219953144491 23.168685480490627,56.44859948470076 M91.95961511534642,56.47647993156541 C92.20455886609903,56.679893395935025 92.52212674698981,57.18373289998902 92.66555289647405,57.59596522148774 C92.80897904595832,58.00819754298645 93.34025449259607,58.63778355228711 93.84602038814586,58.99510846312382 C94.92757329396645,59.75926030269977 95.03794114765307,60.05143600606703 95.09494718528836,62.2978034391615 C95.142582367422,64.17489719847727 94.79481950769244,64.90803915327518 93.85695305289784,64.90803915327518 C93.13800019468448,64.90803915327518 92.80195090433207,64.49097042772853 92.50390563906987,63.228384476858054 C92.3779196928804,62.69581104287212 92.02312869152456,62.0773203134462 91.71519196767721,61.853992244173234 C91.17949139483036,61.46508845984699 91.14304917899042,61.50093474867296 90.87363708331671,62.679879358949485 C90.46886818595186,64.44971874614306 90.24761187549518,64.76579197539432 89.41334543430267,64.76579197539432 C88.64337347391344,64.76579197539432 88.39296339078481,64.4167174008747 87.72112511162166,62.40790275484128 C87.35357933472187,61.3089010585338 86.91731395080964,61.35015274011926 86.607815417712,62.513165666473114 C86.13614902412672,64.28613449158009 85.79671581373202,64.76294703183672 84.94240615382753,64.85426972003623 C84.21850756632165,64.93136769044764 84.0930422232156,64.84146747402696 83.95091758143994,64.14303383063195 C83.5846733122487,62.339908603814244 83.25513156043911,61.49410688413467 82.91882196854493,61.49410688413467 C82.43518170404082,61.49410688413467 81.75293136320911,62.61302318534548 81.75293136320911,63.40676243792065 C81.75293136320911,64.26422842618645 80.8733724537584,65.19253350903689 80.06097134206985,65.19253350903689 C79.19572901741338,65.19253350903689 78.36901132093055,64.24602078741769 78.36901132093055,63.25541144065541 C78.36901132093055,62.81586766100359 78.20059622344178,62.20790322274081 77.99443740240449,61.90406325078728 C77.6570866043435,61.40676711691582 77.57951674491278,61.39538734268537 77.21301217417988,61.78941202541534 C76.98915284830605,62.03009425038974 76.65518597028733,62.796806539167555 76.47063217721228,63.49353321642796 C76.054410012012,65.06479554329988 75.07047018433411,65.62240448059285 74.21199569976221,64.7734733229999 C73.92149917920966,64.48613402368058 73.68358357008333,64.06479788279748 73.68358357008333,63.83748689254388 C73.68358357008333,63.60989140793451 73.14007395098506,62.87845641927115 72.47552411498987,62.211601649365704 C71.4509772468046,61.1834390476429 71.29323451252608,60.88642694022766 71.43796216971893,60.25598744785973 C71.53479434323643,59.83522029568814 71.94450896989386,59.323130455317084 72.38337736922321,59.07533587144862 C72.8092306914669,58.834369152118455 73.39022373257194,58.13991842970412 73.6739524130399,57.5316694970856 C73.9579413950496,56.923420564467065 74.33980375674366,56.36012174005887 74.52253543902668,56.2796098373783 C74.70526712130973,56.19938242905351 78.6032827084729,56.127689851401556 83.18458984263467,56.12029299815175 C89.63147812625877,56.109766706988566 91.61497587411742,56.190278609669136 91.95961511534642,56.47647993156541 " stroke="none" fill="undefined" fill-rule="evenodd" id="svg_1" class=""/></g></svg>