<svg xmlns="http://www.w3.org/2000/svg" version="1.1" width="98" height="66" style=""><rect id="backgroundrect" width="100%" height="100%" x="0" y="0" fill="none" stroke="none" class="" style=""/><g class="currentLayer" style=""><title>Layer 1</title><path fill="#9b4f23" fill-opacity="1" stroke="none" stroke-opacity="1" stroke-width="1" stroke-dasharray="none" stroke-linejoin="round" stroke-linecap="butt" stroke-dashoffset="" fill-rule="nonzero" opacity="1" marker-start="" marker-mid="" marker-end="" id="svg_2" d="M27.80290691523807,19.67869564059933 L70.84527073558328,19.871797513712217 L70.35265989814485,38.98509800632305 L74.09650226267688,41.54667436100286 L73.8994579277015,47.45800441026394 C73.91128303237596,47.46194791631063 72.23640612213805,48.74273614178668 72.13788395094758,48.841258312977146 C72.03936177975712,48.93978048416761 67.5073419049957,50.81170173678646 67.495517041002,50.80775810484522 C67.5073419049957,50.81170173678646 65.93098716594825,53.8658890436909 65.91916236119904,53.86194529696345 C65.93098716594825,53.8658890436909 63.172366372615215,58.79199760321416 63.16054167154387,58.78805367134768 C63.172366372615215,58.79199760321416 57.162513929996805,61.84618491011861 57.06399175880634,61.84618491011861 C56.96546958761587,61.84618491011861 52.92606056880678,64.80185004583257 52.91423625282466,64.79790588809645 C52.92606056880678,64.80185004583257 52.92606056880678,66.08263827130862 52.91423625282466,66.07869406543635 C52.92606056880678,66.08263827130862 51.94083885690213,66.57524912726096 51.92901457794781,66.57130490287477 C51.94083885690213,66.57524912726096 45.7339420719028,66.37820478488003 45.722118026223676,66.37426056789941 C45.7339420719028,66.37820478488003 43.1723656209507,63.126973135594646 43.16054167154387,63.12302904080581 C43.1723656209507,63.126973135594646 40.11817831404626,62.043229252499536 40.11817831404626,62.043229252499536 C40.11817831404626,62.043229252499536 37.359557520713224,60.46687451345209 37.359557520713224,60.46687451345209 C37.359557520713224,60.46687451345209 34.89650324095159,58.00382023369045 34.88467960257835,57.9998763314462 C34.89650324095159,58.00382023369045 32.13788244761855,54.25997772845274 32.13788244761855,54.16145555726228 C32.13788244761855,54.06293338607182 30.758572050952026,49.53091351131041 30.746748568095597,49.52696992750532 C30.758572050952026,49.53091351131041 27.408818230476204,48.93978048416761 27.396994873514316,48.935836922579206 C27.408818230476204,48.93978048416761 24.354630923571765,47.16638140273923 24.354630923571765,47.16638140273923 " style="color: rgb(0, 0, 0);" class=""/><path d="M19.195537652139762,0.09261635349289345 C18.969902350298604,0.20685427186672642 18.659887677702574,0.6294560558167052 18.506657733914913,1.0314479060394297 C18.319937973353145,1.5209829033321318 18.03592935959286,1.8456384308069382 17.646399758901897,2.0148361724534216 C16.896901401376407,2.34066941042691 16.51859743759296,2.919906690703904 16.51859743759296,3.7421449038791903 C16.51859743759296,4.6405417293037035 16.76911623457913,5.0574512458432945 17.49373109695961,5.365029971086951 C18.23106834783527,5.6781046786578715 18.382988633983715,5.879493173935468 18.386730512952887,6.550395588027884 C18.389911110076696,7.141802543458101 18.833136673975307,7.623486137426158 19.54540333575751,7.809956966386883 C20.035028198873878,7.938131125662005 20.351029877820594,8.378398567092455 20.171793875197167,8.682444160840019 C20.122401072804063,8.766257891330785 19.45166926757971,8.877355248374771 18.681216387826847,8.929174510317539 C17.152097547074046,9.032224178953737 16.812522030621544,9.22046157366253 16.431972939456593,10.17617364335708 C16.224485750615923,10.696917968865327 16.04506265404404,10.833139816548226 15.42147852383125,10.943648318342852 C14.596768399025407,11.089880705264692 14.369449251648113,11.450652688032939 14.42969350305179,12.518443540187052 C14.505653646126017,13.870455192693957 14.64878051669691,14.144272883641559 15.498561230596234,14.56314525101231 C16.08697169849878,14.853450888941712 16.403534659290866,15.165544171097052 16.593622110924894,15.642909493236541 C16.940868479264207,16.514611547357198 17.374178063894504,16.738572827193202 18.71395782880713,16.738572827193202 C19.3180841883802,16.738572827193202 19.912294568684977,16.844370486993036 20.035963668616173,16.974114926933087 C20.481995641741673,17.442058565082974 20.276566486334033,17.89037369492121 19.437637221445296,18.27980329982447 C18.78467934132451,18.582867468156447 18.587669413597517,18.79053708609377 18.484019366151397,19.285568065713754 C18.380369318705302,19.78059904533374 18.187475457844407,19.983950391442495 17.54911090570337,20.271115468042016 C16.62486680031748,20.686650988999798 16.208956952893836,21.582496108343797 16.431972939456593,22.67678544671865 C16.608963814698516,23.545346939509447 16.819444506714525,23.77264506575843 17.5861555074982,23.92358829467507 C18.092618825975837,24.02310483181517 18.29898345112577,24.195639419874627 18.492064405935135,24.68046357517256 C18.89936793172967,25.70310885820986 19.221356617027073,25.85699636337324 21.177798036059503,25.963971733671773 L22.973338659417454,26.062114275230055 L23.06688563364679,31.303122279525464 C23.136671676421884,35.21606541145419 23.221612329022125,36.608315505999975 23.40215798928476,36.79753432612435 C23.53499469269042,36.93670045005398 23.955956076722458,37.14260350224327 24.337627731578163,37.25507485486906 C24.893858040345823,37.418776614188296 25.031372092462945,37.553624466289364 25.031372092462945,37.93559523803419 C25.031372092462945,38.318743720277716 24.908264274377135,38.43847762097883 24.40254933169332,38.54682698685917 C23.20252874627934,38.8043530159081 23.167916365814502,38.92467577185857 23.093078786431015,43.07885327093755 C23.01524770387221,47.39476967850458 23.157252010752348,48.27118257462005 23.962504364918527,48.448428004674305 C24.771685692002297,48.62645857506103 25.005740221524103,48.823921368676295 25.163086232177864,49.46067017830643 C25.37356692419388,50.31274372411546 25.60275701105577,50.433655335315244 27.240951623759976,50.55711865259556 C28.880642988051882,50.68077825495901 29.24098593278329,50.88609245189893 29.24098593278329,51.69674984517034 C29.24098593278329,52.327413817223885 29.806758032922325,52.82107080126203 30.911734892519306,53.15495172764333 L31.579660288516784,53.35692907817027 L31.682374866220613,54.87107220933144 C31.80136661744035,56.62291657614678 32.16301921981096,57.29637069631971 33.16958466251867,57.63908445144125 C33.71122164330655,57.823592429570816 33.83694877667079,57.97532079881991 33.92619259008556,58.55396922384753 C34.076990312543266,59.52970237202 34.189059587670016,59.65748396112891 35.015640651960474,59.7960612298092 C35.66710178049362,59.905392021105094 35.76027456682604,59.99215002784261 35.86673102349901,60.587286399852026 C36.04278642899864,61.5714598065985 36.39508433394632,61.76676346429947 38.19941837288186,61.88060881250709 C39.75080139350124,61.978358783899154 39.813852054131814,62.00093156845756 39.8641803262672,62.47299719335289 C40.049403335241294,64.20835361318647 40.626213978339415,64.63036654188707 42.814651893460606,64.63134796730262 C44.537225876919656,64.63232939271822 44.76978365485382,64.77699149897514 44.76978365485382,65.8491006229578 L44.76978365485382,66.5949839388008 L45.89234734560589,66.5949839388008 L47.01491103635797,66.5949839388008 L47.017530351636395,65.85891487711362 C47.02333026403862,64.19108052587217 47.420904904513314,63.84699277516887 49.34161137939015,63.84699277516887 C50.979057616300544,63.84699277516887 51.39178686660037,64.20462419660726 51.34538756738262,65.58254548008553 L51.31114937481468,66.5949839388008 L52.70761860611029,66.5949839388008 L54.10390074345741,66.5949839388008 L54.160964397737324,65.66262979399708 L54.2180280520172,64.7302756491934 L55.733863222429456,64.63213310763511 C57.4579339574762,64.52044689534179 57.80723835924856,64.31061814149021 57.97131975204683,63.28758028828663 C58.20930325448629,61.802487349426706 58.08638253034889,61.8841419440032 60.082487866454585,61.8841419440032 C62.169146673614236,61.8841419440032 62.620978559141975,61.67627604098274 62.80807250760064,60.62988026288833 C62.911535461098296,60.05221326327628 63.040069003689425,59.9171691260921 63.7012590175424,59.69281527608985 C64.50707265355395,59.419390155308484 64.69547625965178,59.19680287105432 64.87302841673912,58.30900544011808 C64.957407787494,57.887581366666815 65.13739216591121,57.73173101067226 65.73440895544287,57.56292583919201 C66.65116930289044,57.304025814561264 66.84686957297819,56.868272930042494 66.84686957297819,55.08659323059343 C66.84686957297819,53.67157406640611 67.06614368057177,53.051313203757765 67.56605871085335,53.051313203757765 C68.14474029343607,53.051313203757765 68.61490738591274,52.52369890034043 68.81865269578422,51.645519438476924 C69.04802987659455,50.657224044985014 69.27721996345647,50.56045549900856 71.47744479733053,50.52276876305018 C72.91862948230775,50.4982331276606 73.58225171749072,50.131965162565095 73.58225171749072,49.36115364116633 C73.58225171749072,48.905772248335886 73.93791731351067,48.536756292076774 74.37646552869779,48.536756292076774 C74.56636588638337,48.536756292076774 74.92839267665092,48.31986127523295 75.18096950707017,48.05487641302558 C75.63860130500008,47.5749593848056 75.64028515053622,47.55807886765757 75.64028515053622,43.57800623730297 C75.64028515053622,40.68594182266351 75.57573773831798,39.492921087481044 75.40641771496286,39.257575272824276 C75.27788417237173,39.0789558471882 74.83578117216388,38.818681826975634 74.42417448555477,38.67951570304598 C73.81892556229096,38.474790361355396 73.67579869172006,38.33385767167771 73.67579869172006,37.942857786109506 C73.67579869172006,37.547735913795876 73.82640932022933,37.404251518037654 74.49901206493823,37.15850259397571 C74.96805659372417,36.98714571641496 75.38508900483859,36.68879239007778 75.4681587179542,36.46522368040801 C75.54842202184298,36.24931008897978 75.61689840697885,31.258761850741113 75.62045319199957,25.375116484322067 C75.62569182255643,16.979807194343465 75.57498936252414,14.57904434274475 75.3849019108901,14.21964635555832 C75.25169101958753,13.967812593919767 74.81276861650348,13.567979879611329 74.40939406362655,13.331260069372751 L73.67579869172006,12.900610597014998 L73.58225171749072,11.295391187287736 C73.48159517321993,9.568278740945082 73.34838428191735,9.304275304153299 72.40917266065479,8.969412952356436 C71.95771496302399,8.808459184200858 71.78484015464814,8.607266974006372 71.69297702595493,8.136379059609741 C71.5438631490334,7.37145609070448 71.20728113575622,6.924318671364944 70.7808940272189,6.924318671364944 C69.90978460319528,6.924318671364944 69.30210345860147,6.490724922760444 68.90415463022985,5.5854581194268516 C68.35465970360674,4.335122139974338 68.10208287318748,4.176327507733027 66.66145947005565,4.176327507733027 C65.29174467338963,4.176327507733027 64.97593008839134,3.9851458367774955 64.97593008839134,3.1556450755268974 C64.97593008839134,2.853366047527384 64.80492621950013,2.426642276831969 64.59594227907176,2.2073918389907745 C64.21894797292754,1.811877396510884 64.07395016287207,1.8089331202641319 45.23321536518597,1.8273839180770968 C34.79262466539773,1.8375907423991649 26.168716205143266,1.793034028531705 26.0689951306148,1.7284562361863518 C25.96927405608633,1.6636821587578794 25.83269547371148,1.3023213207402946 25.765154558317906,0.9254539611564755 C25.697800736872786,0.5483903164895582 25.489565172238258,0.15405358450837991 25.302471223779587,0.04904106504101592 C24.84652327138577,-0.20711096842609925 19.714162077267222,-0.1704056578833121 19.195537652139762,0.09261635349289345 M67.88430551718156,23.50157536597446 L68.34362116064763,23.98325895994251 L68.34362116064763,29.88967339600308 L68.34362116064763,35.79608783206363 L67.88430551718156,36.27777142603169 L67.42517696766399,36.759651305082855 L59.82710462680848,36.759651305082855 C55.16191702199128,36.759651305082855 52.09507301885656,36.83482849191651 51.88234719945905,36.954366107534476 C51.6915113720312,37.06134147783301 51.479908116324424,37.414654627442836 51.41199301303391,37.739113869834505 C51.22695709800827,38.62337816927464 50.678771829024356,38.92094635527935 49.265089954470554,38.90504726354692 C47.64186285764303,38.88659646573394 47.39153115460532,38.75488917496271 47.03043983408003,37.728907045512436 L46.72379285255627,36.85779384664113 L38.620566850862346,36.759651305082855 L30.51734084916839,36.661508763524566 L30.159804313663876,36.19807968228637 C29.82658999145896,35.76625249942992 29.80226777815932,35.35542782046694 29.80226777815932,30.152695407379277 C29.80226777815932,24.27454602328749 29.871866726985964,23.73221033863642 30.690964033338048,23.231683376689187 C30.907057543807838,23.09958351575173 37.205575318669325,23.02950974107911 49.22168415842813,23.02558403941678 L67.42517696766399,23.01969548692329 L67.88430551718156,23.50157536597446 M34.770734673428066,29.992330494473034 C34.27530989790947,30.250837948937548 34.1587503680197,31.291541459621584 34.576344060979494,31.72984605022087 C34.82555320032646,31.991101495849016 35.309565244989074,32.04822045503594 37.252535899732464,32.045865034038535 C39.732279092603825,32.04292075779179 40.50160940866593,31.849776236005088 40.620788253834114,31.20007261088926 C40.65596191614433,31.008498369767487 40.552498962646695,30.640267553840815 40.391036885126844,30.381760099376297 C40.10946049269653,29.930696978374428 39.99701702967287,29.90910561923161 37.626536702701344,29.851594089878457 C36.193958339353266,29.816851630166827 34.993937753939264,29.875933440184912 34.770734673428066,29.992330494473034 M58.1602846399901,30.198037261579206 C57.743252228875676,30.635752996929128 57.78272905200046,31.59539076828601 58.2281997432806,31.845654249259645 C58.42726770444062,31.95734046155297 59.713538600094026,32.04880931028531 61.08662108783231,32.04880931028531 C63.80715419236999,32.04880931028531 64.41464824301534,31.855272218332352 64.41464824301534,30.9884772912896 C64.41464824301534,30.04238319066775 63.952900378219326,29.88967339600308 61.09242100023454,29.88967339600308 C58.94364700218657,29.88967339600308 58.39976489401719,29.946792355189988 58.1602846399901,30.198037261579206 M35.976368077295795,39.311357385598185 C36.28544728014954,39.635620342906755 36.35055597421315,39.9655755676257 36.35055597421315,41.20963042441849 C36.35055597421315,42.335325376091994 36.4287612446689,42.80601700540553 36.66019645891229,43.07433871402586 C37.040184268231876,43.514998725622554 37.99062152640196,43.541693496926406 38.553961405211034,43.127728256633574 C38.924407423159245,42.855677131434014 38.9698712526347,42.65173693007589 38.9698712526347,41.26301996702622 C38.9698712526347,39.00515265593636 39.08025668222532,38.918787219365065 41.963374427973584,38.918787219365065 C45.03732800114972,38.918787219365065 44.956877603312506,38.822214958471704 44.956877603312506,42.510804240398215 C44.956877603312506,44.43223891902627 44.88596899684667,45.39207297546627 44.7323648651621,45.55322302870497 C44.56716090867305,45.72654275709691 42.93869518128869,45.788765128444844 38.56892892108774,45.788765128444844 C31.385082582119757,45.788765128444844 32.04739515966349,46.14207827805468 32.04739515966349,42.31000460036996 C32.04739515966349,39.02262202833372 32.11325222952094,38.918787219365065 34.19897556693833,38.918787219365065 C35.35278394708303,38.918787219365065 35.668785626029724,38.98866470895457 35.976368077295795,39.311357385598185 M59.070309605293104,39.11016517540373 C59.5335542216768,39.29506572369953 59.55020558308963,39.35944723096175 59.55020558308963,40.974873465011086 C59.55020558308963,42.38655578278542 59.608765988957224,42.7096410295953 59.924393480006984,43.04077396481292 C60.40541202149427,43.54542291350563 61.05425383474895,43.54012321626147 61.676528307322556,43.026445153745435 C62.13004403838636,42.65232578532528 62.169520861511174,42.50295283707355 62.169520861511174,41.16173686413806 C62.169520861511174,39.18043523515945 62.41554940373433,38.918787219365065 64.27937931827972,38.918787219365065 C66.4537851872665,38.918787219365065 66.47268167606086,38.94822998183253 66.47268167606086,42.350831897658225 C66.47268167606086,44.653648492781734 66.41861152495625,45.228567501230174 66.17875708303225,45.48040126286872 C65.92374803128307,45.74774154607349 65.09267671222959,45.788765128444844 59.91765809786248,45.788765128444844 C54.209608824336556,45.788765128444844 53.94206447804066,45.77227718146305 53.756841469066586,45.409149777697415 C53.65038501239357,45.20030244926139 53.563199232411826,43.83121399452333 53.563199232411826,42.36673098939066 C53.563199232411826,38.86029426459634 53.51418061791565,38.918787219365065 56.45099432687156,38.918787219365065 C57.627628168728215,38.918787219365065 58.80632004401793,39.00495637085323 59.070309605293104,39.11016517540373 M51.063998268900775,41.51230202258426 C51.30273014713404,41.76276178864097 51.35960670746548,42.19557039691301 51.333974836526636,43.56289228590302 C51.316013817474605,44.51605264951703 51.217415306636894,45.38402528705849 51.11488782288152,45.49158951260637 C51.012360339126175,45.599153738154236 50.61890176551755,45.77836201903966 50.2405978017341,45.88965566116675 C49.679690144255005,46.054927701150916 49.50195089321924,46.23609883286751 49.27594140348115,46.87284764249762 C48.95470109397759,47.777721875665 48.84749626151077,47.87763098297135 47.9054782310213,48.15125238883583 C47.05270401394664,48.39896416372892 46.77805009760931,49.11442329168882 47.302287341190535,49.7223181941008 C47.780873661347826,50.27701983898822 50.3212352935198,50.28310467656485 50.969890012826056,49.73115102284103 C51.374948411239096,49.38667070197149 51.407128570373985,49.229838920561356 51.358671237723165,47.845243944257106 C51.29693023473181,46.08417417853528 51.452405305900996,45.788765128444844 52.440635541659745,45.788765128444844 C53.255990969042685,45.788765128444844 53.467220036852524,46.00428614970683 53.640469033125285,47.013191476925996 C53.831117766604656,48.12377247719951 54.12803586280858,48.20601592702535 57.37654808989667,48.04879157544898 C61.54350450996843,47.84720679508827 63.9878869465811,47.84190709784412 65.30334449819405,48.031518488134715 L66.47268167606086,48.20012737453185 L66.47268167606086,49.99750988063023 C66.47268167606086,51.90402689294143 66.33441924814987,52.26617287129148 65.6066237886456,52.26617287129148 C64.8195195474799,52.26617287129148 64.60174219147403,52.749034175758254 64.60174219147403,54.4938122795814 C64.60174219147403,56.42957576927698 64.3377526301988,56.97701486608908 63.40396673344155,56.97701486608908 C62.68533887741178,56.97701486608908 62.26493877522509,57.39883150970657 62.081586705735575,58.30350945779081 C61.91058283684434,59.147731600275144 61.52348545748336,59.33243586348784 59.924393480006984,59.33243586348784 C58.328669193602884,59.33243586348784 57.954294202737096,59.50928872337587 57.796386910237956,60.337219203961546 C57.565887165736875,61.54672788612581 57.96495855779922,61.49157177777006 49.439461514434036,61.49157177777006 C45.13873292121433,61.49157177777006 41.48310426228016,61.43641566941431 41.315842272358104,61.36928617098845 C41.148767376384505,61.301960387479454 40.84698483752065,60.90742737041517 40.645110467133726,60.49248070470677 C40.16558867723414,59.50634444712914 39.81329077228645,59.33302471873719 38.2806171465129,59.32949158724111 C37.57920193374131,59.32772502149305 36.90603790718698,59.260006667817834 36.784426840688845,59.17894092849069 C36.66300286813915,59.09787518916354 36.409864755874565,58.59754451229942 36.2222095255705,58.06718221771844 C35.95560064901689,57.314036353800184 35.76588738527979,57.070642850735666 35.35540326236145,56.95542350694623 C34.40309506470675,56.68827950882459 34.29252254116768,56.462355378157426 34.29252254116768,54.784903057843266 C34.29252254116768,53.39540095446109 34.24350392667149,53.17850593761731 33.83320689770161,52.748052750342666 C33.58063006728237,52.4830678881353 33.27155086442865,52.26617287129148 33.14638501290978,52.26617287129148 C33.021219161390924,52.26617287129148 32.76490045200253,52.11994048436967 32.5766839398531,51.9413210587336 C32.30146874167039,51.68006561310542 32.234489108122176,51.31988248558654 32.234489108122176,50.10055954926644 C32.234489108122176,49.12423754584463 32.3177459151863,48.51457607768459 32.46835654369554,48.387383343825064 C32.919814241326335,48.00600142732958 35.30208148705073,47.71196637282096 37.00538479381856,47.82718571661037 C37.93149983868903,47.889800658124564 39.89168313669061,47.99500946267504 41.3611190078851,48.061157535685325 C44.49382008087725,48.20189394027992 44.82815696677294,48.08569317107489 45.0261023642422,46.78687477609261 C45.126758908512976,46.12696432665467 45.234712116773665,45.970328830327674 45.66016375556869,45.86688659152525 C46.86111981072496,45.574618102764674 47.01491103635797,45.324943477040414 47.01491103635797,43.66868994570284 C47.01491103635797,41.37136933290656 47.32080964208792,41.07262343640315 49.58969795504635,41.153296605564044 C50.37680219621203,41.18136537244973 50.86081424087463,41.29913642231965 51.063998268900775,41.51230202258426 M72.63630471408358,41.571776402768556 C72.87297855888387,41.820077032911016 72.92742289788534,42.410502562925636 72.92742289788534,44.73196624094526 C72.92742289788534,47.331565881741064 72.89486855085352,47.61186098043152 72.56427354392702,47.865657592901236 C72.05668766175863,48.25489091272137 71.58988826035421,48.21308219001755 71.1363725292904,47.73728714854299 C70.77359736322899,47.35669037237996 70.75264284100165,47.14764675886084 70.80895811948767,44.48248790030409 C70.86190570690148,41.98790077897568 70.91204688508846,41.6016117354023 71.21345523605534,41.3707804776572 C71.62019748000453,41.0592760507512 72.22993665803139,41.14524891715625 72.63630471408358,41.571776402768556 M27.54965663871681,41.84422009813435 C27.698396327741463,42.22089117263505 27.75358904253677,43.29084116070344 27.712615467824314,45.00087680481495 C27.65779694092594,47.29172000986839 27.609152514326674,47.61971238375617 27.28753801692618,47.86605016306744 C26.784068201623878,48.25175035139152 26.313714015198773,48.213671045266906 25.87329486052701,47.75161595961051 C25.536712847249852,47.39849909508379 25.499106963609655,47.09739777758299 25.499106963609655,44.752968744838746 C25.499106963609655,41.740777859331935 25.660569041129488,41.27420821676385 26.703056521941274,41.27420821676385 C27.21270043754271,41.27420821676385 27.365182005536546,41.37686531523382 27.54965663871681,41.84422009813435 M31.498461514885726,45.991920189470484 C31.763199451954762,46.14070428247288 31.86030121120482,46.404904004347756 31.86030121120482,46.97766387688188 C31.86030121120482,47.62795635724708 31.7789153436253,47.798920664641614 31.377973012078336,47.99049490576334 C30.801162368980222,48.26627544754216 30.402465164814757,48.062138961100906 29.989361726617993,47.27915776454891 C29.722378662167472,46.77313482027442 29.734352674868816,46.72386726441217 30.233706423305044,46.26809330141552 C30.81949757592919,45.733020164839736 30.976469398686014,45.69886656037746 31.498461514885726,45.991920189470484 M68.3062023709559,46.220592311301296 C68.84971029122838,46.790800477754914 68.28693169426464,48.14418612584363 67.50637574129505,48.14418612584363 C66.65865306082877,48.14418612584363 66.47268167606086,47.952023029472514 66.47268167606086,47.07639527368953 C66.47268167606086,46.6200324554435 66.52880986059843,46.187812702420814 66.59747333968278,46.11597236200018 C66.8087024074926,45.89417021807845 68.06859305641338,45.971310255743255 68.3062023709559,46.220592311301296 M43.07845436078735,53.018141024711085 C42.40454195843918,53.59070461216207 42.6909827935294,54.34718732249332 43.69586439070099,54.648681210160376 C44.76809980931769,54.970196176305315 44.891394721351936,55.094640919001215 45.02834749162371,55.99303774442573 C45.20589964871099,57.15759714255632 45.500759711481884,57.247299425540575 49.166491443632815,57.252010267535375 C52.986014401416796,57.25691739461329 53.347105721942064,57.14012777015893 53.6571203945381,55.80028579280525 C53.803427862232766,55.16844411025305 53.96507703370108,54.901496397214494 54.22682146759476,54.86027652976003 C55.21860648837425,54.70383731851611 55.46126733952515,54.57252259791115 55.632832490261755,54.098886692350874 C56.01057517219983,53.056809186085054 54.80045151356908,52.17391888222671 54.05955947767273,52.95120781136831 C53.90632953388505,53.11196529444079 53.72503549782859,53.510227728084296 53.65674620664117,53.836060966057794 C53.588644009402216,54.16189420403128 53.37685365974699,54.5161887790567 53.18601783231913,54.623164149355226 C52.991065938025166,54.73269122573425 51.25071802946253,54.817878951806854 49.2078392062422,54.817878951806854 C45.92714682001923,54.817878951806854 45.546223540957335,54.78313649209521 45.266518088011615,54.45887353478665 C45.09626259491421,54.26141074117139 44.956877603312506,53.92183754737973 44.956877603312506,53.70415739020346 C44.956877603312506,53.207752415001664 44.39503447609106,52.65874303752462 43.88707440602577,52.65874303752462 C43.67509696242207,52.65874303752462 43.311199232669935,52.82048194601266 43.07845436078735,53.018141024711085 " stroke="none" fill="black" fill-rule="evenodd" id="svg_1" class=""/><path fill="#eb1a1a" fill-opacity="1" stroke="none" stroke-opacity="1" stroke-width="1" stroke-dasharray="none" stroke-linejoin="miter" stroke-linecap="butt" stroke-dashoffset="" fill-rule="evenodd" opacity="1" marker-start="" marker-mid="" marker-end="" d="M35.06694561243057,50.66736401617527 C35.06694561243057,49.838634734407314 35.73821633066262,49.16736401617527 36.56694561243057,49.16736401617527 C37.39567489419853,49.16736401617527 38.06694561243057,49.838634734407314 38.06694561243057,50.66736401617527 C38.06694561243057,51.496093297943226 37.39567489419853,52.16736401617527 36.56694561243057,52.16736401617527 C35.73821633066262,52.16736401617527 35.06694561243057,51.496093297943226 35.06694561243057,50.66736401617527 z" id="svg_4" class=""/><path fill="#eb1a1a" fill-opacity="1" stroke="none" stroke-opacity="1" stroke-width="1" stroke-dasharray="none" stroke-linejoin="miter" stroke-linecap="butt" stroke-dashoffset="" fill-rule="evenodd" opacity="1" marker-start="" marker-mid="" marker-end="" d="M60.36251210421324,50.47031968832016 C60.36251210421324,49.641590406552204 61.033782822445275,48.97031968832016 61.86251210421324,48.97031968832016 C62.6912413859812,48.97031968832016 63.36251210421324,49.641590406552204 63.36251210421324,50.47031968832016 C63.36251210421324,51.299048970088116 62.6912413859812,51.97031968832016 61.86251210421324,51.97031968832016 C61.033782822445275,51.97031968832016 60.36251210421324,51.299048970088116 60.36251210421324,50.47031968832016 z" id="svg_6" class=""/></g></svg>