<svg version="1.1" xmlns="http://www.w3.org/2000/svg" xmlns:xlink="http://www.w3.org/1999/xlink" stroke-linecap="round" stroke-linejoin="round" stroke-width="0" fill-rule="evenodd" clip-rule="evenodd" id="esLUSdW__al8C0jy4D_9_bottom" viewBox="0.79 0.73 1998.31 1998.72" width="4in" height="4in" class="w-100 h-100"><defs><style>.esLUSdW__al8C0jy4D_9_fr4 {color: #666666;}
.esLUSdW__al8C0jy4D_9_cu {color: #cccccc;}
.esLUSdW__al8C0jy4D_9_cf {color: #cc9933;}
.esLUSdW__al8C0jy4D_9_sm {color: #004200; opacity: 0.75;}
.esLUSdW__al8C0jy4D_9_ss {color: #ffffff;}
.esLUSdW__al8C0jy4D_9_sp {color: #999999;}
.esLUSdW__al8C0jy4D_9_out {color: #000000;}</style><rect x="-30" y="-30" width="60" height="60" id="KPsLxzvjJGW-MLaoF54w_pad-25"/><circle cx="0" cy="0" r="43.37" id="KPsLxzvjJGW-MLaoF54w_pad-26"/><rect x="-43.37" y="-43.37" width="86.74" height="86.74" id="KPsLxzvjJGW-MLaoF54w_pad-27"/><circle cx="0" cy="0" r="30" id="KPsLxzvjJGW-MLaoF54w_pad-28"/><circle cx="0" cy="0" r="4" id="KPsLxzvjJGW-MLaoF54w_pad-29"/><circle cx="0" cy="0" r="42.385" id="KPsLxzvjJGW-MLaoF54w_pad-30"/><rect x="-42.385" y="-42.385" width="84.77" height="84.77" id="KPsLxzvjJGW-MLaoF54w_pad-31"/><circle cx="0" cy="0" r="56.5" id="KPsLxzvjJGW-MLaoF54w_pad-32"/><rect x="-56.5" y="-56.5" width="113" height="113" id="KPsLxzvjJGW-MLaoF54w_pad-33"/><circle cx="0" cy="0" r="32.545" id="KPsLxzvjJGW-MLaoF54w_pad-34"/><rect x="-32.545" y="-32.545" width="65.09" height="65.09" id="KPsLxzvjJGW-MLaoF54w_pad-35"/><circle cx="0" cy="0" r="33.685" id="KPsLxzvjJGW-MLaoF54w_pad-36"/><rect x="-33.685" y="-33.685" width="67.37" height="67.37" id="KPsLxzvjJGW-MLaoF54w_pad-37"/><circle cx="0" cy="0" r="26.64" id="KPsLxzvjJGW-MLaoF54w_pad-38"/><rect x="-26.64" y="-26.64" width="53.28" height="53.28" id="KPsLxzvjJGW-MLaoF54w_pad-39"/><circle cx="0" cy="0" r="29" id="KPsLxzvjJGW-MLaoF54w_pad-40"/><mask id="W1bFDNfCcwE1kVd4WSl-_clear-1" fill="#000" stroke="#000"><g><rect x="20" y="20" width="1960" height="1960" fill="#fff"/><path d="M 127.11 1942.91 111.97 1942.91 97.35 1938.99 84.23 1931.42 73.53 1920.71 65.96 1907.6 62.04 1892.98 62.04 1877.84 65.96 1863.21 73.53 1850.1 84.23 1839.4 97.35 1831.83 111.97 1827.91 127.11 1827.91 141.73 1831.83 154.85 1839.4 165.55 1850.1 173.12 1863.21 177.04 1877.84 177.04 1892.98 173.12 1907.6 165.55 1920.71 154.85 1931.42 141.73 1938.99 127.11 1942.91"/><path d="M 1768.4 1802.2 1755.66 1802.2 1743.35 1798.9 1732.32 1792.53 1723.31 1783.52 1716.94 1772.49 1713.64 1760.19 1713.64 1747.45 1716.94 1735.14 1723.31 1724.11 1732.32 1715.1 1743.35 1708.73 1755.66 1705.43 1768.4 1705.43 1780.71 1708.73 1791.74 1715.1 1800.75 1724.11 1807.12 1735.14 1810.42 1747.45 1810.42 1760.19 1807.12 1772.49 1800.75 1783.52 1791.74 1792.53 1780.71 1798.9 1768.4 1802.2"/><path d="M 1810.42 1605.35 1713.64 1605.35 1713.64 1508.58 1810.42 1508.58 1810.42 1605.35"/><path d="M 1559.89 1170.64 1434.89 1170.64 1434.89 1045.64 1559.89 1045.64 1559.89 1170.64"/><path d="M 1938.54 1093.54 1861.46 1093.54 1861.46 1016.46 1938.54 1016.46 1938.54 1093.54"/><path d="M 1905.07 993.54 1905 993.54 1905 960 1938.54 960 1938.54 960.07 1935.92 969.88 1930.84 978.67 1923.67 985.84 1914.88 990.92 1905.07 993.54"/><path d="M 1895 993.54 1894.93 993.54 1885.12 990.92 1876.33 985.84 1869.16 978.67 1864.08 969.88 1861.46 960.07 1861.46 960 1895 960 1895 993.54"/><path d="M 166.5 1139.37 153.5 1139.37 140.94 1136.01 129.69 1129.51 120.49 1120.31 113.99 1109.06 110.63 1096.5 110.63 1083.5 113.99 1070.94 120.49 1059.69 129.69 1050.49 136.16 1046.76 137.48 1040.22 136.84 1039.37 110.63 1039.37 110.63 940.63 209.37 940.63 209.37 1039.37 183.16 1039.37 182.52 1040.22 183.84 1046.76 190.31 1050.49 199.51 1059.69 206.01 1070.94 209.37 1083.5 209.37 1096.5 206.01 1109.06 199.51 1120.31 190.31 1129.51 179.06 1136.01 166.5 1139.37"/><path d="M 1938.54 950 1905 950 1905 916.46 1905.07 916.46 1914.88 919.08 1923.67 924.16 1930.84 931.33 1935.92 940.12 1938.54 949.93 1938.54 950"/><path d="M 1895 950 1861.46 950 1861.46 949.93 1864.08 940.12 1869.16 931.33 1876.33 924.16 1885.12 919.08 1894.93 916.46 1895 916.46 1895 950"/><path d="M 1840 699.46 1840 672.01 1867.45 672.01 1865.41 679.61 1861.12 687.05 1855.04 693.13 1847.6 697.42 1840 699.46"/><path d="M 1830 699.46 1822.4 697.42 1814.96 693.13 1808.88 687.05 1804.59 679.61 1802.55 672.01 1830 672.01 1830 699.46"/><path d="M 1867.45 662.01 1840 662.01 1840 634.56 1847.6 636.59 1855.04 640.89 1861.12 646.97 1865.41 654.41 1867.45 662.01"/><path d="M 1830 662.01 1802.55 662.01 1804.59 654.41 1808.88 646.97 1814.96 640.89 1822.4 636.59 1830 634.56 1830 662.01"/><path d="M 1839.3 620.63 1830.7 620.63 1822.4 618.41 1814.96 614.11 1808.88 608.03 1804.59 600.59 1802.36 592.29 1802.36 583.69 1804.59 575.39 1808.88 567.95 1814.96 561.87 1822.4 557.58 1830.7 555.35 1839.3 555.35 1847.6 557.58 1855.04 561.87 1861.12 567.95 1865.41 575.39 1867.64 583.69 1867.64 592.29 1865.41 600.59 1861.12 608.03 1855.04 614.11 1847.6 618.41 1839.3 620.63"/><path d="M 1839.3 541.61 1830.7 541.61 1822.4 539.39 1814.96 535.09 1808.88 529.02 1804.59 521.57 1802.36 513.27 1802.36 504.68 1804.59 496.38 1808.88 488.94 1814.96 482.86 1822.4 478.56 1830.7 476.34 1839.3 476.34 1847.6 478.56 1855.04 482.86 1861.12 488.94 1865.41 496.38 1867.64 504.68 1867.64 513.27 1865.41 521.57 1861.12 529.02 1855.04 535.09 1847.6 539.39 1839.3 541.61"/><path d="M 784.74 471 775.26 471 766.1 468.55 757.89 463.81 751.19 457.1 746.45 448.9 744 439.74 744 430.26 746.45 421.1 751.19 412.9 757.89 406.19 766.1 401.45 775.26 399 784.74 399 793.9 401.45 802.11 406.19 808.81 412.9 813.55 421.1 816 430.26 816 439.74 813.55 448.9 808.81 457.1 802.11 463.81 793.9 468.55 784.74 471"/><path d="M 584.74 471 575.26 471 566.11 468.55 557.9 463.81 551.19 457.1 546.45 448.9 544 439.74 544 430.26 546.45 421.1 551.19 412.9 557.9 406.19 566.11 401.45 575.26 399 584.74 399 593.9 401.45 602.11 406.19 608.81 412.9 613.55 421.1 616 430.26 616 439.74 613.55 448.9 608.81 457.1 602.11 463.81 593.9 468.55 584.74 471"/><path d="M 484.74 471 475.26 471 466.1 468.55 457.9 463.81 451.19 457.1 446.45 448.9 444 439.74 444 430.26 446.45 421.1 451.19 412.9 457.9 406.19 466.1 401.45 475.26 399 484.74 399 493.9 401.45 502.1 406.19 508.81 412.9 513.55 421.1 516 430.26 516 439.74 513.55 448.9 508.81 457.1 502.1 463.81 493.9 468.55 484.74 471"/><path d="M 1839.3 462.64 1830.7 462.64 1822.4 460.41 1814.96 456.12 1808.88 450.04 1804.59 442.6 1802.36 434.3 1802.36 425.7 1804.59 417.4 1808.88 409.96 1814.96 403.88 1822.4 399.59 1830.7 397.36 1839.3 397.36 1847.6 399.59 1855.04 403.88 1861.12 409.96 1865.41 417.4 1867.64 425.7 1867.64 434.3 1865.41 442.6 1861.12 450.04 1855.04 456.12 1847.6 460.41 1839.3 462.64"/><path d="M 1839.3 383.62 1830.7 383.62 1822.4 381.4 1814.96 377.1 1808.88 371.02 1804.59 363.58 1802.36 355.28 1802.36 346.69 1804.59 338.39 1808.88 330.94 1814.96 324.87 1822.4 320.57 1830.7 318.35 1839.3 318.35 1847.6 320.57 1855.04 324.87 1861.12 330.94 1865.41 338.39 1867.64 346.69 1867.64 355.28 1865.41 363.58 1861.12 371.02 1855.04 377.1 1847.6 381.4 1839.3 383.62"/><path d="M 274.61 590 265.39 590 256.49 587.62 248.51 583.01 241.99 576.49 237.39 568.51 235 559.61 235 550.39 237.39 541.49 241.99 533.51 248.51 526.99 254.71 523.42 254.71 460 255.87 454.15 259.19 449.19 390.04 318.33 395 315.01 400.86 313.85 409.14 313.85 413.46 314.71 625 314.71 630.85 315.87 635.81 319.19 690.81 374.18 694.13 379.15 695.29 385 695.29 402.26 702.1 406.19 708.81 412.9 713.55 421.1 716 430.26 716 439.74 713.55 448.9 708.81 457.1 702.1 463.81 693.89 468.55 684.74 471 675.26 471 666.1 468.55 657.9 463.81 651.19 457.1 646.45 448.9 644 439.74 644 430.26 646.45 421.1 651.19 412.9 657.9 406.19 664.71 402.26 664.71 391.34 618.66 345.29 410 345.29 406.94 344.69 285.29 466.33 285.29 523.42 291.49 526.99 298.01 533.51 302.61 541.49 305 550.39 305 559.61 302.61 568.51 298.01 576.49 291.49 583.01 283.51 587.62 274.61 590"/><path d="M 1839.3 304.65 1830.7 304.65 1822.4 302.42 1814.96 298.12 1808.88 292.05 1804.59 284.61 1802.36 276.3 1802.36 267.71 1804.59 259.41 1808.88 251.97 1814.96 245.89 1822.4 241.59 1830.7 239.37 1839.3 239.37 1847.6 241.59 1855.04 245.89 1861.12 251.97 1865.41 259.41 1867.64 267.71 1867.64 276.3 1865.41 284.61 1861.12 292.05 1855.04 298.12 1847.6 302.42 1839.3 304.65"/><path d="M 1225.22 199.69 1225 199.69 1225 165 1259.69 165 1259.69 165.22 1256.98 175.32 1251.76 184.37 1244.37 191.76 1235.32 196.98 1225.22 199.69"/><path d="M 1215 199.69 1214.77 199.69 1204.68 196.98 1195.63 191.76 1188.24 184.37 1183.02 175.32 1180.32 165.22 1180.32 165 1215 165 1215 199.69"/><path d="M 1867.64 225.63 1802.36 225.63 1802.36 160.35 1867.64 160.35 1867.64 225.63"/><path d="M 785 170.93 785 140 815.93 140 813.55 148.89 808.81 157.1 802.11 163.81 793.9 168.55 785 170.93"/><path d="M 775 170.93 766.1 168.55 757.89 163.81 751.19 157.1 746.45 148.89 744.07 140 775 140 775 170.93"/><path d="M 1459.68 199.69 1380.31 199.69 1380.31 120.32 1459.68 120.32 1459.68 199.69"/><path d="M 1325.22 199.69 1314.77 199.69 1304.68 196.98 1295.63 191.76 1288.24 184.37 1283.02 175.32 1280.32 165.22 1280.32 154.77 1283.02 144.68 1288.24 135.63 1295.63 128.24 1304.68 123.02 1314.77 120.32 1325.22 120.32 1335.32 123.02 1344.37 128.24 1351.76 135.63 1356.98 144.68 1359.68 154.77 1359.68 165.22 1356.98 175.32 1351.76 184.37 1344.37 191.76 1335.32 196.98 1325.22 199.69"/><path d="M 1259.69 155 1225 155 1225 120.32 1225.22 120.32 1235.32 123.02 1244.37 128.24 1251.76 135.63 1256.98 144.68 1259.69 154.77 1259.69 155"/><path d="M 1215 155 1180.32 155 1180.32 154.77 1183.02 144.68 1188.24 135.63 1195.63 128.24 1204.68 123.02 1214.77 120.32 1215 120.32 1215 155"/><path d="M 815.93 130 785 130 785 99.07 793.9 101.45 802.11 106.19 808.81 112.89 813.55 121.11 815.93 130"/><path d="M 775 130 744.07 130 746.45 121.11 751.19 112.89 757.89 106.19 766.1 101.45 775 99.07 775 130"/><path d="M 684.74 171 675.26 171 666.1 168.55 657.9 163.81 651.19 157.1 646.45 148.89 644 139.74 644 130.26 646.45 121.11 651.19 112.89 657.9 106.19 666.1 101.45 675.26 99 684.74 99 693.89 101.45 702.1 106.19 708.81 112.89 713.55 121.11 716 130.26 716 139.74 713.55 148.89 708.81 157.1 702.1 163.81 693.89 168.55 684.74 171"/><path d="M 584.74 171 575.26 171 566.11 168.55 557.9 163.81 551.19 157.1 546.45 148.89 544 139.74 544 130.26 546.45 121.11 551.19 112.89 557.9 106.19 566.11 101.45 575.26 99 584.74 99 593.9 101.45 602.11 106.19 608.81 112.89 613.55 121.11 616 130.26 616 139.74 613.55 148.89 608.81 157.1 602.11 163.81 593.9 168.55 584.74 171"/><path d="M 516 171 444 171 444 99 516 99 516 171"/><path d="M 125.68 175.61 110.54 175.61 95.92 171.69 82.8 164.12 72.1 153.42 64.53 140.3 60.61 125.68 60.61 110.54 64.53 95.92 72.1 82.8 82.8 72.1 95.92 64.53 110.54 60.61 125.68 60.61 140.3 64.53 153.42 72.1 164.12 82.8 171.69 95.92 175.61 110.54 175.61 125.68 171.69 140.3 164.12 153.42 153.42 164.12 140.3 171.69 125.68 175.61"/></g></mask><rect x="-26" y="-26" width="52" height="52" id="W1bFDNfCcwE1kVd4WSl-_pad-46"/><circle cx="0" cy="0" r="39.37" id="W1bFDNfCcwE1kVd4WSl-_pad-47"/><rect x="-39.37" y="-39.37" width="78.74" height="78.74" id="W1bFDNfCcwE1kVd4WSl-_pad-48"/><circle cx="0" cy="0" r="26" id="W1bFDNfCcwE1kVd4WSl-_pad-49"/><circle cx="0" cy="0" r="38.385" id="W1bFDNfCcwE1kVd4WSl-_pad-50"/><rect x="-38.385" y="-38.385" width="76.77" height="76.77" id="W1bFDNfCcwE1kVd4WSl-_pad-51"/><circle cx="0" cy="0" r="52.5" id="W1bFDNfCcwE1kVd4WSl-_pad-52"/><rect x="-52.5" y="-52.5" width="105" height="105" id="W1bFDNfCcwE1kVd4WSl-_pad-53"/><circle cx="0" cy="0" r="28.545" id="W1bFDNfCcwE1kVd4WSl-_pad-54"/><rect x="-28.545" y="-28.545" width="57.09" height="57.09" id="W1bFDNfCcwE1kVd4WSl-_pad-55"/><circle cx="0" cy="0" r="29.685" id="W1bFDNfCcwE1kVd4WSl-_pad-56"/><rect x="-29.685" y="-29.685" width="59.37" height="59.37" id="W1bFDNfCcwE1kVd4WSl-_pad-57"/><circle cx="0" cy="0" r="22.64" id="W1bFDNfCcwE1kVd4WSl-_pad-58"/><rect x="-22.64" y="-22.64" width="45.28" height="45.28" id="W1bFDNfCcwE1kVd4WSl-_pad-59"/><circle cx="0" cy="0" r="25" id="W1bFDNfCcwE1kVd4WSl-_pad-60"/><circle cx="0" cy="0" r="14" id="JdY5TgAunLfg-suiSatr_pad-1"/><circle cx="0" cy="0" r="15.75" id="JdY5TgAunLfg-suiSatr_pad-2"/><circle cx="0" cy="0" r="16" id="JdY5TgAunLfg-suiSatr_pad-3"/><circle cx="0" cy="0" r="19.7" id="JdY5TgAunLfg-suiSatr_pad-4"/><circle cx="0" cy="0" r="21.65" id="JdY5TgAunLfg-suiSatr_pad-5"/><circle cx="0" cy="0" r="25.6" id="JdY5TgAunLfg-suiSatr_pad-6"/><circle cx="0" cy="0" r="26.2" id="JdY5TgAunLfg-suiSatr_pad-7"/><circle cx="0" cy="0" r="35" id="JdY5TgAunLfg-suiSatr_pad-8"/><circle cx="0" cy="0" r="47.5" id="JdY5TgAunLfg-suiSatr_pad-9"/><g id="esLUSdW__al8C0jy4D_9_bottom_soldermask"><use xlink:href="#KPsLxzvjJGW-MLaoF54w_pad-25" x="480" y="135"/><use xlink:href="#KPsLxzvjJGW-MLaoF54w_pad-26" x="160" y="1090"/><use xlink:href="#KPsLxzvjJGW-MLaoF54w_pad-26" x="160" y="1190"/><use xlink:href="#KPsLxzvjJGW-MLaoF54w_pad-27" x="160" y="990"/><use xlink:href="#KPsLxzvjJGW-MLaoF54w_pad-28" x="580" y="135"/><use xlink:href="#KPsLxzvjJGW-MLaoF54w_pad-28" x="780" y="435"/><use xlink:href="#KPsLxzvjJGW-MLaoF54w_pad-28" x="680" y="435"/><use xlink:href="#KPsLxzvjJGW-MLaoF54w_pad-28" x="580" y="435"/><use xlink:href="#KPsLxzvjJGW-MLaoF54w_pad-28" x="480" y="435"/><use xlink:href="#KPsLxzvjJGW-MLaoF54w_pad-28" x="680" y="135"/><use xlink:href="#KPsLxzvjJGW-MLaoF54w_pad-28" x="780" y="135"/><use xlink:href="#KPsLxzvjJGW-MLaoF54w_pad-29" x="119.54" y="1885.41"/><use xlink:href="#KPsLxzvjJGW-MLaoF54w_pad-29" x="118.11" y="118.11"/><use xlink:href="#KPsLxzvjJGW-MLaoF54w_pad-30" x="1762.03" y="1753.82"/><use xlink:href="#KPsLxzvjJGW-MLaoF54w_pad-31" x="1762.03" y="1556.96"/><use xlink:href="#KPsLxzvjJGW-MLaoF54w_pad-32" x="1497.39" y="908.14"/><use xlink:href="#KPsLxzvjJGW-MLaoF54w_pad-33" x="1497.39" y="1108.14"/><use xlink:href="#KPsLxzvjJGW-MLaoF54w_pad-34" x="1900" y="955"/><use xlink:href="#KPsLxzvjJGW-MLaoF54w_pad-35" x="1900" y="1055"/><use xlink:href="#KPsLxzvjJGW-MLaoF54w_pad-36" x="1220" y="160"/><use xlink:href="#KPsLxzvjJGW-MLaoF54w_pad-36" x="1320" y="160"/><use xlink:href="#KPsLxzvjJGW-MLaoF54w_pad-37" x="1420" y="160"/><use xlink:href="#KPsLxzvjJGW-MLaoF54w_pad-38" x="1835" y="667.01"/><use xlink:href="#KPsLxzvjJGW-MLaoF54w_pad-38" x="1835" y="587.99"/><use xlink:href="#KPsLxzvjJGW-MLaoF54w_pad-38" x="1835" y="508.98"/><use xlink:href="#KPsLxzvjJGW-MLaoF54w_pad-38" x="1835" y="430"/><use xlink:href="#KPsLxzvjJGW-MLaoF54w_pad-38" x="1835" y="350.98"/><use xlink:href="#KPsLxzvjJGW-MLaoF54w_pad-38" x="1835" y="272.01"/><use xlink:href="#KPsLxzvjJGW-MLaoF54w_pad-39" x="1835" y="192.99"/><use xlink:href="#KPsLxzvjJGW-MLaoF54w_pad-40" x="270" y="555"/><use xlink:href="#KPsLxzvjJGW-MLaoF54w_pad-40" x="410" y="845"/><use xlink:href="#KPsLxzvjJGW-MLaoF54w_pad-40" x="1045" y="635"/></g><g id="esLUSdW__al8C0jy4D_9_bottom_silkscreen"><path d="M 1296.95 1108.14 1289.08 1108.14 1296.95 1108.14" fill="none" stroke-width="7.87"/><path d="M 1662.39 750.66 1662.39 1265.62 M 1332.39 750.66 1662.39 750.66 M 1332.39 750.66 1332.39 1265.62 1662.39 1265.62" fill="none" stroke-width="5"/><path d="M 173.56 692.76 173.56 726.09 140.24 692.76 131.91 692.76 123.58 701.09 123.58 717.76 131.91 726.09 M 131.91 676.1 123.58 667.77 123.58 651.11 131.91 642.78 165.23 642.78 173.56 651.11 173.56 667.77 165.23 676.1 131.91 676.1 M 173.56 592.8 173.56 626.12 140.24 592.8 131.91 592.8 123.58 601.13 123.58 617.79 131.91 626.12 M 131.91 576.13 123.58 567.8 123.58 551.14 131.91 542.81 140.24 542.81 148.57 551.14 148.57 559.47 148.57 551.14 156.9 542.81 165.23 542.81 173.56 551.14 173.56 567.8 165.23 576.13 M 173.56 526.15 165.23 526.15 165.23 517.82 173.56 517.82 173.56 526.15 M 131.91 484.5 123.58 476.17 123.58 459.5 131.91 451.18 165.23 451.18 173.56 459.5 173.56 476.17 165.23 484.5 131.91 484.5 M 173.56 409.52 123.58 409.52 148.57 434.51 148.57 401.19 M 173.56 384.53 165.23 384.53 165.23 376.2 173.56 376.2 173.56 384.53 M 173.56 342.88 173.56 326.21 173.56 334.55 123.58 334.55 131.91 342.88 M 123.58 267.9 131.91 284.56 148.57 301.22 165.23 301.22 173.56 292.89 173.56 276.23 165.23 267.9 156.9 267.9 148.57 276.23 148.57 301.22 M 1476.64 1347.29 1516.63 1347.29 M 1496.63 1367.28 1496.63 1327.29 M 1730.3 1102.14 1730.3 1088.81 1730.3 1095.47 1690.32 1095.47 1696.98 1102.14 M 1730.3 1042.16 1730.3 1068.82 1703.65 1042.16 1696.98 1042.16 1690.32 1048.82 1690.32 1062.15 1696.98 1068.82 M 1690.32 1028.83 1716.97 1028.83 1730.3 1015.5 1716.97 1002.17 1690.32 1002.17 M 1690.32 988.84 1730.3 988.84 1730.3 968.85 1723.64 962.18 1696.98 962.18 1690.32 968.85 1690.32 988.84 M 1696.98 922.2 1690.32 928.86 1690.32 942.19 1696.98 948.85 1723.64 948.85 1730.3 942.19 1730.3 928.86 1723.64 922.2" fill="none" stroke-width="10"/></g><g id="esLUSdW__al8C0jy4D_9_bottom_copper"><g mask="url(#W1bFDNfCcwE1kVd4WSl-_clear-1)"><path d="M 1980 20 20 20 20 1980 1980 1980 1980 20"/></g><path d="M 625 330 680 385 680 435 M 400.86 329.14 409.14 329.14 M 270 460 400.86 329.14 M 409.14 329.14 410 330 625 330 M 270 460 270 555 M 673.51 441.49 680 435" fill="none" stroke-width="10"/><use xlink:href="#W1bFDNfCcwE1kVd4WSl-_pad-46" x="480" y="135"/><use xlink:href="#W1bFDNfCcwE1kVd4WSl-_pad-47" x="160" y="1090"/><use xlink:href="#W1bFDNfCcwE1kVd4WSl-_pad-47" x="160" y="1190"/><use xlink:href="#W1bFDNfCcwE1kVd4WSl-_pad-48" x="160" y="990"/><use xlink:href="#W1bFDNfCcwE1kVd4WSl-_pad-49" x="580" y="135"/><use xlink:href="#W1bFDNfCcwE1kVd4WSl-_pad-49" x="780" y="435"/><use xlink:href="#W1bFDNfCcwE1kVd4WSl-_pad-49" x="680" y="435"/><use xlink:href="#W1bFDNfCcwE1kVd4WSl-_pad-49" x="580" y="435"/><use xlink:href="#W1bFDNfCcwE1kVd4WSl-_pad-49" x="480" y="435"/><use xlink:href="#W1bFDNfCcwE1kVd4WSl-_pad-49" x="680" y="135"/><use xlink:href="#W1bFDNfCcwE1kVd4WSl-_pad-49" x="780" y="135"/><use xlink:href="#W1bFDNfCcwE1kVd4WSl-_pad-50" x="1762.03" y="1753.82"/><use xlink:href="#W1bFDNfCcwE1kVd4WSl-_pad-51" x="1762.03" y="1556.96"/><use xlink:href="#W1bFDNfCcwE1kVd4WSl-_pad-52" x="1497.39" y="908.14"/><use xlink:href="#W1bFDNfCcwE1kVd4WSl-_pad-53" x="1497.39" y="1108.14"/><use xlink:href="#W1bFDNfCcwE1kVd4WSl-_pad-54" x="1900" y="955"/><use xlink:href="#W1bFDNfCcwE1kVd4WSl-_pad-55" x="1900" y="1055"/><use xlink:href="#W1bFDNfCcwE1kVd4WSl-_pad-56" x="1220" y="160"/><use xlink:href="#W1bFDNfCcwE1kVd4WSl-_pad-56" x="1320" y="160"/><use xlink:href="#W1bFDNfCcwE1kVd4WSl-_pad-57" x="1420" y="160"/><use xlink:href="#W1bFDNfCcwE1kVd4WSl-_pad-58" x="1835" y="667.01"/><use xlink:href="#W1bFDNfCcwE1kVd4WSl-_pad-58" x="1835" y="587.99"/><use xlink:href="#W1bFDNfCcwE1kVd4WSl-_pad-58" x="1835" y="508.98"/><use xlink:href="#W1bFDNfCcwE1kVd4WSl-_pad-58" x="1835" y="430"/><use xlink:href="#W1bFDNfCcwE1kVd4WSl-_pad-58" x="1835" y="350.98"/><use xlink:href="#W1bFDNfCcwE1kVd4WSl-_pad-58" x="1835" y="272.01"/><use xlink:href="#W1bFDNfCcwE1kVd4WSl-_pad-59" x="1835" y="192.99"/><use xlink:href="#W1bFDNfCcwE1kVd4WSl-_pad-60" x="270" y="555"/><use xlink:href="#W1bFDNfCcwE1kVd4WSl-_pad-60" x="410" y="845"/><use xlink:href="#W1bFDNfCcwE1kVd4WSl-_pad-60" x="1045" y="635"/></g><g id="esLUSdW__al8C0jy4D_9_bottom_drill1"><use xlink:href="#JdY5TgAunLfg-suiSatr_pad-1" x="270" y="555"/><use xlink:href="#JdY5TgAunLfg-suiSatr_pad-1" x="1045" y="635"/><use xlink:href="#JdY5TgAunLfg-suiSatr_pad-1" x="410" y="845"/><use xlink:href="#JdY5TgAunLfg-suiSatr_pad-2" x="1835" y="193"/><use xlink:href="#JdY5TgAunLfg-suiSatr_pad-2" x="1835" y="272"/><use xlink:href="#JdY5TgAunLfg-suiSatr_pad-2" x="1835" y="351"/><use xlink:href="#JdY5TgAunLfg-suiSatr_pad-2" x="1835" y="430"/><use xlink:href="#JdY5TgAunLfg-suiSatr_pad-2" x="1835" y="509"/><use xlink:href="#JdY5TgAunLfg-suiSatr_pad-2" x="1835" y="588"/><use xlink:href="#JdY5TgAunLfg-suiSatr_pad-2" x="1835" y="667"/><use xlink:href="#JdY5TgAunLfg-suiSatr_pad-3" x="480" y="135"/><use xlink:href="#JdY5TgAunLfg-suiSatr_pad-3" x="480" y="435"/><use xlink:href="#JdY5TgAunLfg-suiSatr_pad-3" x="580" y="435"/><use xlink:href="#JdY5TgAunLfg-suiSatr_pad-3" x="680" y="435"/><use xlink:href="#JdY5TgAunLfg-suiSatr_pad-3" x="780" y="435"/><use xlink:href="#JdY5TgAunLfg-suiSatr_pad-3" x="780" y="135"/><use xlink:href="#JdY5TgAunLfg-suiSatr_pad-3" x="680" y="135"/><use xlink:href="#JdY5TgAunLfg-suiSatr_pad-3" x="580" y="135"/><use xlink:href="#JdY5TgAunLfg-suiSatr_pad-4" x="1220" y="160"/><use xlink:href="#JdY5TgAunLfg-suiSatr_pad-4" x="1320" y="160"/><use xlink:href="#JdY5TgAunLfg-suiSatr_pad-4" x="1420" y="160"/><use xlink:href="#JdY5TgAunLfg-suiSatr_pad-5" x="1900" y="955"/><use xlink:href="#JdY5TgAunLfg-suiSatr_pad-5" x="1900" y="1055"/><use xlink:href="#JdY5TgAunLfg-suiSatr_pad-6" x="1762" y="1557"/><use xlink:href="#JdY5TgAunLfg-suiSatr_pad-6" x="1762" y="1753.8"/><use xlink:href="#JdY5TgAunLfg-suiSatr_pad-7" x="160" y="990"/><use xlink:href="#JdY5TgAunLfg-suiSatr_pad-7" x="160" y="1090"/><use xlink:href="#JdY5TgAunLfg-suiSatr_pad-7" x="160" y="1190"/><use xlink:href="#JdY5TgAunLfg-suiSatr_pad-8" x="1497.4" y="908.1"/><use xlink:href="#JdY5TgAunLfg-suiSatr_pad-8" x="1497.4" y="1108.1"/><use xlink:href="#JdY5TgAunLfg-suiSatr_pad-9" x="118.1" y="118.1"/><use xlink:href="#JdY5TgAunLfg-suiSatr_pad-9" x="119.5" y="1885.4"/></g><clipPath id="esLUSdW__al8C0jy4D_9_bottom_outline"><path d="M 0.79 1999.06 1.17 1999.45 1999.1 1999.45 1999.1 0.73 0.79 0.73 0.79 1999.06" fill="none" stroke-width="1"/></clipPath><mask id="esLUSdW__al8C0jy4D_9_bottom_mech-mask"><g fill="#000" stroke="#000"><rect x="0.79" y="0.73" width="1998.31" height="1998.72" fill="#fff"/><use xlink:href="#esLUSdW__al8C0jy4D_9_bottom_drill1"/></g></mask><mask id="esLUSdW__al8C0jy4D_9_bottom_cf-mask"><g fill="#fff" stroke="#fff"><use xlink:href="#esLUSdW__al8C0jy4D_9_bottom_soldermask"/></g></mask><mask id="esLUSdW__al8C0jy4D_9_bottom_sm-mask"><g fill="#000" stroke="#000"><rect x="0.79" y="0.73" width="1998.31" height="1998.72" fill="#fff"/><use xlink:href="#esLUSdW__al8C0jy4D_9_bottom_soldermask"/></g></mask></defs><g transform="translate(0,2000.18) scale(1,-1)"><g mask="url(#esLUSdW__al8C0jy4D_9_bottom_mech-mask)" clip-path="url(#esLUSdW__al8C0jy4D_9_bottom_outline)" transform="translate(1999.8899999999999,0) scale(-1,1)"><rect x="0.79" y="0.73" width="1998.31" height="1998.72" fill="currentColor" class="esLUSdW__al8C0jy4D_9_fr4"/><use xlink:href="#esLUSdW__al8C0jy4D_9_bottom_copper" fill="currentColor" stroke="currentColor" class="esLUSdW__al8C0jy4D_9_cu"/><use xlink:href="#esLUSdW__al8C0jy4D_9_bottom_copper" fill="currentColor" stroke="currentColor" class="esLUSdW__al8C0jy4D_9_cf" mask="url(#esLUSdW__al8C0jy4D_9_bottom_cf-mask)"/><g mask="url(#esLUSdW__al8C0jy4D_9_bottom_sm-mask)"><rect x="0.79" y="0.73" width="1998.31" height="1998.72" fill="currentColor" class="esLUSdW__al8C0jy4D_9_sm"/><use xlink:href="#esLUSdW__al8C0jy4D_9_bottom_silkscreen" fill="currentColor" stroke="currentColor" class="esLUSdW__al8C0jy4D_9_ss"/></g></g></g></svg>