<svg version="1.1" xmlns="http://www.w3.org/2000/svg" xmlns:xlink="http://www.w3.org/1999/xlink" stroke-linecap="round" stroke-linejoin="round" stroke-width="0" fill-rule="evenodd" clip-rule="evenodd" id="esLUSdW__al8C0jy4D_9_top" viewBox="0.79 0.73 1998.31 1998.72" width="4in" height="4in" class="w-100 h-100"><defs><style>.esLUSdW__al8C0jy4D_9_fr4 {color: #666666;}
.esLUSdW__al8C0jy4D_9_cu {color: #cccccc;}
.esLUSdW__al8C0jy4D_9_cf {color: #cc9933;}
.esLUSdW__al8C0jy4D_9_sm {color: #004200; opacity: 0.75;}
.esLUSdW__al8C0jy4D_9_ss {color: #ffffff;}
.esLUSdW__al8C0jy4D_9_sp {color: #999999;}
.esLUSdW__al8C0jy4D_9_out {color: #000000;}</style><rect x="-31.495" y="-16.735" width="62.99" height="33.47" id="ATpwYk7tqNDLhS2r9KW__pad-22"/><rect x="-108.28" y="-73.985" width="216.56" height="147.97" id="ATpwYk7tqNDLhS2r9KW__pad-23"/><rect x="-28.435" y="-26.5" width="56.87" height="53" id="ATpwYk7tqNDLhS2r9KW__pad-24"/><rect x="-30.51" y="-45.67" width="61.02" height="91.34" id="ATpwYk7tqNDLhS2r9KW__pad-41"/><rect x="-34.055" y="-19.095" width="68.11" height="38.19" id="ATpwYk7tqNDLhS2r9KW__pad-42"/><rect x="-59.055" y="-19.685" width="118.11" height="39.37" id="ATpwYk7tqNDLhS2r9KW__pad-43"/><rect x="-125.985" y="-109.25" width="251.97" height="218.5" id="ATpwYk7tqNDLhS2r9KW__pad-44"/><rect x="-62.01" y="-246.065" width="124.02" height="492.13" id="ATpwYk7tqNDLhS2r9KW__pad-45"/><rect x="-26" y="-26" width="52" height="52" id="ATpwYk7tqNDLhS2r9KW__pad-46"/><circle cx="0" cy="0" r="39.37" id="ATpwYk7tqNDLhS2r9KW__pad-47"/><rect x="-39.37" y="-39.37" width="78.74" height="78.74" id="ATpwYk7tqNDLhS2r9KW__pad-48"/><circle cx="0" cy="0" r="26" id="ATpwYk7tqNDLhS2r9KW__pad-49"/><circle cx="0" cy="0" r="38.385" id="ATpwYk7tqNDLhS2r9KW__pad-50"/><rect x="-38.385" y="-38.385" width="76.77" height="76.77" id="ATpwYk7tqNDLhS2r9KW__pad-51"/><circle cx="0" cy="0" r="52.5" id="ATpwYk7tqNDLhS2r9KW__pad-52"/><rect x="-52.5" y="-52.5" width="105" height="105" id="ATpwYk7tqNDLhS2r9KW__pad-53"/><circle cx="0" cy="0" r="28.545" id="ATpwYk7tqNDLhS2r9KW__pad-54"/><rect x="-28.545" y="-28.545" width="57.09" height="57.09" id="ATpwYk7tqNDLhS2r9KW__pad-55"/><circle cx="0" cy="0" r="29.685" id="ATpwYk7tqNDLhS2r9KW__pad-56"/><rect x="-29.685" y="-29.685" width="59.37" height="59.37" id="ATpwYk7tqNDLhS2r9KW__pad-57"/><circle cx="0" cy="0" r="22.64" id="ATpwYk7tqNDLhS2r9KW__pad-58"/><rect x="-22.64" y="-22.64" width="45.28" height="45.28" id="ATpwYk7tqNDLhS2r9KW__pad-59"/><circle cx="0" cy="0" r="25" id="ATpwYk7tqNDLhS2r9KW__pad-60"/><rect x="-34.51" y="-49.67" width="69.02" height="99.34" id="QWWLISoWs1vUAGyp8Dto_pad-17"/><rect x="-38.055" y="-23.095" width="76.11" height="46.19" id="QWWLISoWs1vUAGyp8Dto_pad-18"/><rect x="-63.055" y="-23.685" width="126.11" height="47.37" id="QWWLISoWs1vUAGyp8Dto_pad-19"/><rect x="-129.985" y="-113.25" width="259.97" height="226.5" id="QWWLISoWs1vUAGyp8Dto_pad-20"/><rect x="-66.01" y="-250.065" width="132.02" height="500.13" id="QWWLISoWs1vUAGyp8Dto_pad-21"/><rect x="-31.495" y="-16.735" width="62.99" height="33.47" id="QWWLISoWs1vUAGyp8Dto_pad-22"/><rect x="-108.28" y="-73.985" width="216.56" height="147.97" id="QWWLISoWs1vUAGyp8Dto_pad-23"/><rect x="-28.435" y="-26.5" width="56.87" height="53" id="QWWLISoWs1vUAGyp8Dto_pad-24"/><rect x="-30" y="-30" width="60" height="60" id="QWWLISoWs1vUAGyp8Dto_pad-25"/><circle cx="0" cy="0" r="43.37" id="QWWLISoWs1vUAGyp8Dto_pad-26"/><rect x="-43.37" y="-43.37" width="86.74" height="86.74" id="QWWLISoWs1vUAGyp8Dto_pad-27"/><circle cx="0" cy="0" r="30" id="QWWLISoWs1vUAGyp8Dto_pad-28"/><circle cx="0" cy="0" r="4" id="QWWLISoWs1vUAGyp8Dto_pad-29"/><circle cx="0" cy="0" r="42.385" id="QWWLISoWs1vUAGyp8Dto_pad-30"/><rect x="-42.385" y="-42.385" width="84.77" height="84.77" id="QWWLISoWs1vUAGyp8Dto_pad-31"/><circle cx="0" cy="0" r="56.5" id="QWWLISoWs1vUAGyp8Dto_pad-32"/><rect x="-56.5" y="-56.5" width="113" height="113" id="QWWLISoWs1vUAGyp8Dto_pad-33"/><circle cx="0" cy="0" r="32.545" id="QWWLISoWs1vUAGyp8Dto_pad-34"/><rect x="-32.545" y="-32.545" width="65.09" height="65.09" id="QWWLISoWs1vUAGyp8Dto_pad-35"/><circle cx="0" cy="0" r="33.685" id="QWWLISoWs1vUAGyp8Dto_pad-36"/><rect x="-33.685" y="-33.685" width="67.37" height="67.37" id="QWWLISoWs1vUAGyp8Dto_pad-37"/><circle cx="0" cy="0" r="26.64" id="QWWLISoWs1vUAGyp8Dto_pad-38"/><rect x="-26.64" y="-26.64" width="53.28" height="53.28" id="QWWLISoWs1vUAGyp8Dto_pad-39"/><circle cx="0" cy="0" r="29" id="QWWLISoWs1vUAGyp8Dto_pad-40"/><circle cx="0" cy="0" r="14" id="JdY5TgAunLfg-suiSatr_pad-1"/><circle cx="0" cy="0" r="15.75" id="JdY5TgAunLfg-suiSatr_pad-2"/><circle cx="0" cy="0" r="16" id="JdY5TgAunLfg-suiSatr_pad-3"/><circle cx="0" cy="0" r="19.7" id="JdY5TgAunLfg-suiSatr_pad-4"/><circle cx="0" cy="0" r="21.65" id="JdY5TgAunLfg-suiSatr_pad-5"/><circle cx="0" cy="0" r="25.6" id="JdY5TgAunLfg-suiSatr_pad-6"/><circle cx="0" cy="0" r="26.2" id="JdY5TgAunLfg-suiSatr_pad-7"/><circle cx="0" cy="0" r="35" id="JdY5TgAunLfg-suiSatr_pad-8"/><circle cx="0" cy="0" r="47.5" id="JdY5TgAunLfg-suiSatr_pad-9"/><g id="esLUSdW__al8C0jy4D_9_top_copper"><path d="M 479.9 1065.65 180.63 1065.65 180.63 1109.37 210.63 1159.37 255.63 1229.37 355.83 1367.92 479.9 1367.92 479.9 1065.65"/><path d="M 1950 1510 1950 1140 1950 1005 1355 1005 1173.46 823.46 870 823.46 840.16 976.02 715 976.02 715 1123.94 1028.94 1123.94 1323.65 1418.65 1323.65 1616.61 1843.39 1616.61 1950 1510"/><path d="M 1815 1785 1815 1720 1795 1700 960 1700 960 1910 1690 1910 1815 1785"/><path d="M 171.73 555 270 555 M 165 561.73 171.73 555 M 480 135 545 70 M 1815 70 1900 155 M 545 70 1815 70 M 1841.75 502.23 1857.77 502.23 M 1900 155 1900 460 M 1835 508.98 1841.75 502.23 M 1857.77 502.23 1900 460 M 1675 275 1832.01 275 1835 272.01 M 780 435 1515 435 1675 275 M 600 435 720 555 M 590 435 600 435 M 720 555 1790 555 M 370 805 410 845 M 300 805 370 805 M 228.47 921.54 300 921.54 M 160 990 228.47 921.54 M 165 678.27 166.73 676.54 M 610 295 1285 295 M 480 425 610 295 M 480 425 480 571.73 593.23 684.96 M 690 135 770 215 M 1420 160 1802.01 160 1835 192.99 M 1285 295 1420 160 M 593.23 684.96 668.27 760 685 760 M 159.59 965 165 959.59 M 165 678.27 165 959.59 M 480 684.96 593.23 684.96 M 1285 215 1310.55 189.45 M 770 215 1285 215 M 1310.55 169.45 1320 160 M 1310.55 169.45 1310.55 189.45 M 410 845 438.28 816.72 M 468.32 816.72 480 805.04 M 438.28 816.72 468.32 816.72 M 410 845 410 845 M 1080 670 1080 719.96 M 1045 635 1080 670 M 938.94 669.84 1010.16 669.84 1045 635 M 1825.45 587.99 1835 587.99 M 1812.38 577.38 1814.84 577.38 1825.45 587.99 M 1790 555 1812.38 577.38" fill="none" stroke-width="10"/><use xlink:href="#ATpwYk7tqNDLhS2r9KW__pad-22" x="480" y="805.04"/><use xlink:href="#ATpwYk7tqNDLhS2r9KW__pad-22" x="480" y="684.96"/><use xlink:href="#ATpwYk7tqNDLhS2r9KW__pad-22" x="1080" y="719.96"/><use xlink:href="#ATpwYk7tqNDLhS2r9KW__pad-22" x="1080" y="840.04"/><use xlink:href="#ATpwYk7tqNDLhS2r9KW__pad-22" x="1355" y="1599.96"/><use xlink:href="#ATpwYk7tqNDLhS2r9KW__pad-22" x="1355" y="1720.04"/><use xlink:href="#ATpwYk7tqNDLhS2r9KW__pad-23" x="610" y="1050"/><use xlink:href="#ATpwYk7tqNDLhS2r9KW__pad-24" x="463.06" y="1091.93"/><use xlink:href="#ATpwYk7tqNDLhS2r9KW__pad-24" x="463.06" y="1008.07"/><use xlink:href="#ATpwYk7tqNDLhS2r9KW__pad-41" x="1245" y="910"/><use xlink:href="#ATpwYk7tqNDLhS2r9KW__pad-41" x="1245" y="741.5"/><use xlink:href="#ATpwYk7tqNDLhS2r9KW__pad-42" x="165" y="561.73"/><use xlink:href="#ATpwYk7tqNDLhS2r9KW__pad-42" x="300" y="805"/><use xlink:href="#ATpwYk7tqNDLhS2r9KW__pad-42" x="300" y="921.54"/><use xlink:href="#ATpwYk7tqNDLhS2r9KW__pad-42" x="165" y="678.27"/><use xlink:href="#ATpwYk7tqNDLhS2r9KW__pad-43" x="938.94" y="669.84"/><use xlink:href="#ATpwYk7tqNDLhS2r9KW__pad-43" x="938.94" y="850.16"/><use xlink:href="#ATpwYk7tqNDLhS2r9KW__pad-44" x="685" y="760"/><use xlink:href="#ATpwYk7tqNDLhS2r9KW__pad-45" x="417.83" y="1610"/><use xlink:href="#ATpwYk7tqNDLhS2r9KW__pad-45" x="1022.16" y="1610"/><use xlink:href="#ATpwYk7tqNDLhS2r9KW__pad-46" x="480" y="135"/><use xlink:href="#ATpwYk7tqNDLhS2r9KW__pad-47" x="160" y="1090"/><use xlink:href="#ATpwYk7tqNDLhS2r9KW__pad-47" x="160" y="1190"/><use xlink:href="#ATpwYk7tqNDLhS2r9KW__pad-48" x="160" y="990"/><use xlink:href="#ATpwYk7tqNDLhS2r9KW__pad-49" x="580" y="135"/><use xlink:href="#ATpwYk7tqNDLhS2r9KW__pad-49" x="780" y="435"/><use xlink:href="#ATpwYk7tqNDLhS2r9KW__pad-49" x="680" y="435"/><use xlink:href="#ATpwYk7tqNDLhS2r9KW__pad-49" x="580" y="435"/><use xlink:href="#ATpwYk7tqNDLhS2r9KW__pad-49" x="480" y="435"/><use xlink:href="#ATpwYk7tqNDLhS2r9KW__pad-49" x="680" y="135"/><use xlink:href="#ATpwYk7tqNDLhS2r9KW__pad-49" x="780" y="135"/><use xlink:href="#ATpwYk7tqNDLhS2r9KW__pad-50" x="1762.03" y="1753.82"/><use xlink:href="#ATpwYk7tqNDLhS2r9KW__pad-51" x="1762.03" y="1556.96"/><use xlink:href="#ATpwYk7tqNDLhS2r9KW__pad-52" x="1497.39" y="908.14"/><use xlink:href="#ATpwYk7tqNDLhS2r9KW__pad-53" x="1497.39" y="1108.14"/><use xlink:href="#ATpwYk7tqNDLhS2r9KW__pad-54" x="1900" y="955"/><use xlink:href="#ATpwYk7tqNDLhS2r9KW__pad-55" x="1900" y="1055"/><use xlink:href="#ATpwYk7tqNDLhS2r9KW__pad-56" x="1220" y="160"/><use xlink:href="#ATpwYk7tqNDLhS2r9KW__pad-56" x="1320" y="160"/><use xlink:href="#ATpwYk7tqNDLhS2r9KW__pad-57" x="1420" y="160"/><use xlink:href="#ATpwYk7tqNDLhS2r9KW__pad-58" x="1835" y="667.01"/><use xlink:href="#ATpwYk7tqNDLhS2r9KW__pad-58" x="1835" y="587.99"/><use xlink:href="#ATpwYk7tqNDLhS2r9KW__pad-58" x="1835" y="508.98"/><use xlink:href="#ATpwYk7tqNDLhS2r9KW__pad-58" x="1835" y="430"/><use xlink:href="#ATpwYk7tqNDLhS2r9KW__pad-58" x="1835" y="350.98"/><use xlink:href="#ATpwYk7tqNDLhS2r9KW__pad-58" x="1835" y="272.01"/><use xlink:href="#ATpwYk7tqNDLhS2r9KW__pad-59" x="1835" y="192.99"/><use xlink:href="#ATpwYk7tqNDLhS2r9KW__pad-60" x="270" y="555"/><use xlink:href="#ATpwYk7tqNDLhS2r9KW__pad-60" x="410" y="845"/><use xlink:href="#ATpwYk7tqNDLhS2r9KW__pad-60" x="1045" y="635"/></g><g id="esLUSdW__al8C0jy4D_9_top_soldermask"><use xlink:href="#QWWLISoWs1vUAGyp8Dto_pad-17" x="1245" y="910"/><use xlink:href="#QWWLISoWs1vUAGyp8Dto_pad-17" x="1245" y="741.5"/><use xlink:href="#QWWLISoWs1vUAGyp8Dto_pad-18" x="165" y="561.73"/><use xlink:href="#QWWLISoWs1vUAGyp8Dto_pad-18" x="300" y="805"/><use xlink:href="#QWWLISoWs1vUAGyp8Dto_pad-18" x="300" y="921.54"/><use xlink:href="#QWWLISoWs1vUAGyp8Dto_pad-18" x="165" y="678.27"/><use xlink:href="#QWWLISoWs1vUAGyp8Dto_pad-19" x="938.94" y="669.84"/><use xlink:href="#QWWLISoWs1vUAGyp8Dto_pad-19" x="938.94" y="850.16"/><use xlink:href="#QWWLISoWs1vUAGyp8Dto_pad-20" x="685" y="760"/><use xlink:href="#QWWLISoWs1vUAGyp8Dto_pad-21" x="417.83" y="1610"/><use xlink:href="#QWWLISoWs1vUAGyp8Dto_pad-21" x="1022.16" y="1610"/><use xlink:href="#QWWLISoWs1vUAGyp8Dto_pad-22" x="480" y="805.04"/><use xlink:href="#QWWLISoWs1vUAGyp8Dto_pad-22" x="480" y="684.96"/><use xlink:href="#QWWLISoWs1vUAGyp8Dto_pad-22" x="1080" y="719.96"/><use xlink:href="#QWWLISoWs1vUAGyp8Dto_pad-22" x="1080" y="840.04"/><use xlink:href="#QWWLISoWs1vUAGyp8Dto_pad-22" x="1355" y="1599.96"/><use xlink:href="#QWWLISoWs1vUAGyp8Dto_pad-22" x="1355" y="1720.04"/><use xlink:href="#QWWLISoWs1vUAGyp8Dto_pad-23" x="610" y="1050"/><use xlink:href="#QWWLISoWs1vUAGyp8Dto_pad-24" x="463.06" y="1091.93"/><use xlink:href="#QWWLISoWs1vUAGyp8Dto_pad-24" x="463.06" y="1008.07"/><use xlink:href="#QWWLISoWs1vUAGyp8Dto_pad-25" x="480" y="135"/><use xlink:href="#QWWLISoWs1vUAGyp8Dto_pad-26" x="160" y="1090"/><use xlink:href="#QWWLISoWs1vUAGyp8Dto_pad-26" x="160" y="1190"/><use xlink:href="#QWWLISoWs1vUAGyp8Dto_pad-27" x="160" y="990"/><use xlink:href="#QWWLISoWs1vUAGyp8Dto_pad-28" x="580" y="135"/><use xlink:href="#QWWLISoWs1vUAGyp8Dto_pad-28" x="780" y="435"/><use xlink:href="#QWWLISoWs1vUAGyp8Dto_pad-28" x="680" y="435"/><use xlink:href="#QWWLISoWs1vUAGyp8Dto_pad-28" x="580" y="435"/><use xlink:href="#QWWLISoWs1vUAGyp8Dto_pad-28" x="480" y="435"/><use xlink:href="#QWWLISoWs1vUAGyp8Dto_pad-28" x="680" y="135"/><use xlink:href="#QWWLISoWs1vUAGyp8Dto_pad-28" x="780" y="135"/><use xlink:href="#QWWLISoWs1vUAGyp8Dto_pad-29" x="119.54" y="1885.41"/><use xlink:href="#QWWLISoWs1vUAGyp8Dto_pad-29" x="118.11" y="118.11"/><use xlink:href="#QWWLISoWs1vUAGyp8Dto_pad-30" x="1762.03" y="1753.82"/><use xlink:href="#QWWLISoWs1vUAGyp8Dto_pad-31" x="1762.03" y="1556.96"/><use xlink:href="#QWWLISoWs1vUAGyp8Dto_pad-32" x="1497.39" y="908.14"/><use xlink:href="#QWWLISoWs1vUAGyp8Dto_pad-33" x="1497.39" y="1108.14"/><use xlink:href="#QWWLISoWs1vUAGyp8Dto_pad-34" x="1900" y="955"/><use xlink:href="#QWWLISoWs1vUAGyp8Dto_pad-35" x="1900" y="1055"/><use xlink:href="#QWWLISoWs1vUAGyp8Dto_pad-36" x="1220" y="160"/><use xlink:href="#QWWLISoWs1vUAGyp8Dto_pad-36" x="1320" y="160"/><use xlink:href="#QWWLISoWs1vUAGyp8Dto_pad-37" x="1420" y="160"/><use xlink:href="#QWWLISoWs1vUAGyp8Dto_pad-38" x="1835" y="667.01"/><use xlink:href="#QWWLISoWs1vUAGyp8Dto_pad-38" x="1835" y="587.99"/><use xlink:href="#QWWLISoWs1vUAGyp8Dto_pad-38" x="1835" y="508.98"/><use xlink:href="#QWWLISoWs1vUAGyp8Dto_pad-38" x="1835" y="430"/><use xlink:href="#QWWLISoWs1vUAGyp8Dto_pad-38" x="1835" y="350.98"/><use xlink:href="#QWWLISoWs1vUAGyp8Dto_pad-38" x="1835" y="272.01"/><use xlink:href="#QWWLISoWs1vUAGyp8Dto_pad-39" x="1835" y="192.99"/><use xlink:href="#QWWLISoWs1vUAGyp8Dto_pad-40" x="270" y="555"/><use xlink:href="#QWWLISoWs1vUAGyp8Dto_pad-40" x="410" y="845"/><use xlink:href="#QWWLISoWs1vUAGyp8Dto_pad-40" x="1045" y="635"/></g><g id="esLUSdW__al8C0jy4D_9_top_silkscreen"><path d="M 1248.94 981.26 1241.06 981.26 1248.94 981.26 M 171.81 861.65 163.94 861.65 171.81 861.65 M 1903.94 1130.59 1896.06 1130.59 1903.94 1130.59 M 1838.94 88.66 1831.06 88.66 1838.94 88.66 M 826.73 628.11 862.16 628.11 862.16 891.89 M 826.73 891.89 862.16 891.89" fill="none" stroke-width="7.87"/><path d="M 1708.49 1505.78 1700.22 1510.56 1700.22 1501.01 1708.49 1505.78" fill="none" stroke-width="11.02"/><path d="M 943.86 628.5 936.48 632.77 936.48 624.24 943.86 628.5" fill="none" stroke-width="9.84"/><path d="M 513.03 215 510.17 224.75 502.49 231.4 492.43 232.84 483.19 228.62 477.7 220.08 477.7 209.92 483.19 201.38 492.43 197.16 502.49 198.6 510.17 205.25 513.03 215 M 1296.18 740.71 1296.18 910.79 M 1193.82 740.71 1193.82 910.79 M 52.91 890 52.91 1290 M 52.91 890 218.07 890 218.07 1290 M 52.91 1290 218.07 1290 M 266.54 836.89 266.54 889.65 M 333.47 836.89 333.47 889.65 M 1604.55 1458.54 1931.32 1458.54 1931.32 1852.24 M 1604.55 1852.24 1931.32 1852.24 M 1604.55 1458.54 1604.55 1852.24 M 373.54 1942.68 1066.46 1942.68 M 373.54 1277.32 1066.46 1277.32 M 1850 905 1850 1105 M 1950 905 1950 1105 M 1850 905 1950 905 M 1850 1105 1950 1105 M 1170 110 1470 110 M 1170 110 1170 210 1470 210 M 1470 110 1470 210 M 1951.14 114.25 1951.14 745.75 M 1766.1 114.25 1766.1 745.75 1951.14 745.75 M 1766.1 114.25 1951.14 114.25 M 198.47 593.62 198.47 646.38 M 131.53 593.62 131.53 646.38" fill="none" stroke-width="5"/><path d="M 483 854.77 477 854.77 483 854.77 M 1083 670.23 1077 670.23 1083 670.23 M 1358 1769.77 1352 1769.77 1358 1769.77 M 812.48 160 812.48 410 M 435 160 435 410 M 443.5 713.8 443.5 776.2 M 516.5 713.8 516.5 776.2 M 1116.5 748.8 1116.5 811.2 M 1043.5 748.8 1043.5 811.2 M 1391.5 1628.8 1391.5 1691.2 M 1318.5 1628.8 1318.5 1691.2 M 447.5 951.5 447.5 968.47 M 764.5 1050 814.5 1050 M 804.5 1025 804.5 1075 M 774.5 1025 804.5 1050 M 774.5 1030 804.5 1050 M 774.5 1035 804.5 1050 M 774.5 1040 804.5 1050 M 774.5 1045 804.5 1050 M 774.5 1075 804.5 1050 M 774.5 1070 804.5 1050 M 774.5 1065 804.5 1050 M 774.5 1060 804.5 1050 M 774.5 1055 804.5 1050 M 774.5 1025 774.5 1075 M 447.5 1131.53 447.5 1148.5 M 447.5 951.5 699.5 951.5 699.5 962.92 M 447.5 1148.5 699.5 1148.5 M 699.5 1137.08 699.5 1148.5" fill="none" stroke-width="6"/><path d="M 1491.65 160 1484.57 167.09 1477.48 160 1484.57 152.91 1491.65 160" fill="none" stroke-width="0"/><path d="M 94.17 1661.84 94.17 1701.83 104.16 1701.83 144.15 1661.84 154.15 1661.84 154.15 1701.83 M 154.15 1721.83 114.16 1721.83 94.17 1741.82 114.16 1761.81 154.15 1761.81 124.16 1761.81 124.16 1721.83 M 1476.98 1220.53 1516.97 1220.53 M 1496.97 1240.52 1496.97 1200.54 M 1882.24 1401.33 1922.23 1401.33 M 1902.23 1421.33 1902.23 1381.34 M 1046.96 453.59 1063.62 453.59 1055.29 453.59 1055.29 403.61 1046.96 403.61 1063.62 403.61 M 1088.61 403.61 1088.61 436.93 1113.6 436.93 1121.93 428.6 1121.93 403.61 M 1171.92 436.93 1146.92 436.93 1138.59 428.6 1138.59 411.94 1146.92 403.61 1171.92 403.61 M 1188.58 436.93 1188.58 411.94 1196.91 403.61 1221.9 403.61 1221.9 436.93 M 1238.56 453.59 1238.56 403.61 1263.55 403.61 1271.89 411.94 1271.89 420.27 1271.89 428.6 1263.55 436.93 1238.56 436.93 M 1296.88 436.93 1313.54 436.93 1321.87 428.6 1321.87 403.61 1296.88 403.61 1288.55 411.94 1296.88 420.27 1321.87 420.27 M 1346.86 445.26 1346.86 436.93 1338.53 436.93 1355.19 436.93 1346.86 436.93 1346.86 411.94 1355.19 403.61 M 1388.51 403.61 1405.17 403.61 1413.51 411.94 1413.51 428.6 1405.17 436.93 1388.51 436.93 1380.18 428.6 1380.18 411.94 1388.51 403.61 M 1430.17 436.93 1430.17 403.61 1430.17 420.27 1438.5 428.6 1446.83 436.93 1455.16 436.93 M 415 430 415 440 425 440 425 430 415 430 M 1490 115 1490 125 1500 125 1500 115 1490 115 M 1195.02 674.99 1195.02 615.01 1225.01 615.01 1235 625.01 1235 664.99 1225.01 674.99 1195.02 674.99 M 1294.98 615.01 1255 615.01 1294.98 655 1294.98 664.99 1284.99 674.99 1264.99 674.99 1255 664.99 M 271.68 725.01 271.68 764.99 291.67 764.99 298.34 758.33 298.34 745 291.67 738.34 271.68 738.34 M 285.01 738.34 298.34 725.01 M 338.32 725.01 311.66 725.01 338.32 751.66 338.32 758.33 331.66 764.99 318.33 764.99 311.66 758.33 M 1706.01 1918.98 1732.66 1918.98 1719.34 1918.98 1719.34 1878.99 M 1772.65 1918.98 1745.99 1918.98 1745.99 1878.99 1772.65 1878.99 M 1745.99 1898.99 1759.32 1898.99 M 1812.64 1912.32 1805.97 1918.98 1792.64 1918.98 1785.98 1912.32 1785.98 1885.66 1792.64 1878.99 1805.97 1878.99 1812.64 1885.66 M 384.99 231.68 345.01 231.68 358.33 245.01 345.01 258.34 384.99 258.34 M 351.67 298.33 345.01 291.66 345.01 278.34 351.67 271.67 378.33 271.67 384.99 278.34 384.99 291.66 378.33 298.33 M 345.01 311.66 378.33 311.66 384.99 318.32 384.99 331.65 378.33 338.32 345.01 338.32 M 689.74 612.46 689.74 579.14 696.4 572.47 709.73 572.47 716.4 579.14 716.4 612.46 M 729.73 572.47 743.05 572.47 736.39 572.47 736.39 612.46 729.73 605.8 M 138.34 467.89 138.34 507.88 158.34 507.88 165 501.22 165 487.89 158.34 481.22 138.34 481.22 M 151.67 481.22 165 467.89 M 178.33 467.89 191.66 467.89 184.99 467.89 184.99 507.88 178.33 501.22 M 103.33 853.33 76.67 853.33 70.01 846.67 70.01 833.34 76.67 826.67 103.33 826.67 109.99 833.34 109.99 846.67 M 96.66 840 109.99 853.33 M 109.99 846.67 103.33 853.33 M 680.01 1588.34 719.99 1588.34 719.99 1615 M 719.99 1628.33 719.99 1641.66 719.99 1634.99 680.01 1634.99 686.67 1628.33 M 1364.63 237 1371.29 230.34 1384.62 230.34 1391.29 237 1391.29 243.67 1384.62 250.33 1371.29 250.33 1364.63 257 1364.63 263.66 1371.29 270.33 1384.62 270.33 1391.29 263.66 M 1351.3 270.33 1351.3 230.34 1324.64 270.33 1324.64 230.34 M 1284.65 237 1291.32 230.34 1304.65 230.34 1311.31 237 1311.31 243.67 1304.65 250.33 1291.32 250.33 1284.65 257 1284.65 263.66 1291.32 270.33 1304.65 270.33 1311.31 263.66 M 1271.32 270.33 1271.32 230.34 1251.33 230.34 1244.67 237 1244.67 250.33 1251.33 257 1271.32 257 M 1258 257 1244.67 270.33 M 1774.08 984.29 1774.08 957.63 1794.08 957.63 1794.08 970.97 1794.08 957.63 1814.07 957.63 M 1787.41 1004.29 1787.41 1017.62 1794.08 1024.28 1814.07 1024.28 1814.07 1004.29 1807.4 997.62 1800.74 1004.29 1800.74 1024.28 M 1814.07 1037.61 1787.41 1037.61 1787.41 1057.6 1794.08 1064.27 1814.07 1064.27 M 1671.67 253.39 1671.67 226.73 1691.67 226.73 1691.67 240.06 1691.67 226.73 1711.66 226.73 M 1685 266.72 1711.66 266.72 1698.33 266.72 1691.67 273.38 1685 280.05 1685 286.71 M 1711.66 313.37 1711.66 326.7 1705 333.36 1691.67 333.36 1685 326.7 1685 313.37 1691.67 306.71 1705 306.71 1711.66 313.37 M 1711.66 346.69 1685 346.69 1685 366.69 1691.67 373.35 1711.66 373.35 M 1678.34 393.34 1685 393.34 1685 386.68 1685 400.01 1685 393.34 1705 393.34 1711.66 400.01 M 1718.33 420 1718.33 446.66 M 1711.66 459.99 1671.67 459.99 1671.67 479.98 1678.34 486.65 1691.67 486.65 1698.33 479.98 1698.33 459.99 M 1685 506.64 1685 519.97 1691.67 526.63 1711.66 526.63 1711.66 506.64 1705 499.98 1698.33 506.64 1698.33 526.63 M 1711.66 539.96 1685 539.96 1685 559.96 1691.67 566.62 1711.66 566.62 M 1711.66 599.95 1711.66 586.62 1705 579.95 1691.67 579.95 1685 586.62 1685 599.95 1691.67 606.61 1698.33 606.61 1698.33 579.95 M 1711.66 619.94 1711.66 633.27 1711.66 626.6 1671.67 626.6 1671.67 619.94 M 350.01 1023.34 389.99 1023.34 389.99 1043.33 383.33 1050 356.67 1050 350.01 1043.33 350.01 1023.34 M 389.99 1063.33 389.99 1076.66 389.99 1069.99 350.01 1069.99 356.67 1063.33 M 1241.67 1653.33 1235.01 1646.67 1235.01 1633.34 1241.67 1626.68 1268.33 1626.68 1274.99 1633.34 1274.99 1646.67 1268.33 1653.33 M 1241.67 1666.66 1235.01 1673.33 1235.01 1686.66 1241.67 1693.32 1248.34 1693.32 1255 1686.66 1255 1679.99 1255 1686.66 1261.66 1693.32 1268.33 1693.32 1274.99 1686.66 1274.99 1673.33 1268.33 1666.66 M 1061.67 903.34 1055.01 896.67 1055.01 883.34 1061.67 876.68 1088.33 876.68 1094.99 883.34 1094.99 896.67 1088.33 903.34 M 1094.99 943.32 1094.99 916.67 1068.34 943.32 1061.67 943.32 1055.01 936.66 1055.01 923.33 1061.67 916.67 M 480 638.33 473.34 644.99 460.01 644.99 453.34 638.33 453.34 611.67 460.01 605.01 473.34 605.01 480 611.67 M 493.33 605.01 506.66 605.01 499.99 605.01 499.99 644.99 493.33 638.33" fill="none" stroke-width="10"/></g><g id="esLUSdW__al8C0jy4D_9_top_drill1"><use xlink:href="#JdY5TgAunLfg-suiSatr_pad-1" x="270" y="555"/><use xlink:href="#JdY5TgAunLfg-suiSatr_pad-1" x="1045" y="635"/><use xlink:href="#JdY5TgAunLfg-suiSatr_pad-1" x="410" y="845"/><use xlink:href="#JdY5TgAunLfg-suiSatr_pad-2" x="1835" y="193"/><use xlink:href="#JdY5TgAunLfg-suiSatr_pad-2" x="1835" y="272"/><use xlink:href="#JdY5TgAunLfg-suiSatr_pad-2" x="1835" y="351"/><use xlink:href="#JdY5TgAunLfg-suiSatr_pad-2" x="1835" y="430"/><use xlink:href="#JdY5TgAunLfg-suiSatr_pad-2" x="1835" y="509"/><use xlink:href="#JdY5TgAunLfg-suiSatr_pad-2" x="1835" y="588"/><use xlink:href="#JdY5TgAunLfg-suiSatr_pad-2" x="1835" y="667"/><use xlink:href="#JdY5TgAunLfg-suiSatr_pad-3" x="480" y="135"/><use xlink:href="#JdY5TgAunLfg-suiSatr_pad-3" x="480" y="435"/><use xlink:href="#JdY5TgAunLfg-suiSatr_pad-3" x="580" y="435"/><use xlink:href="#JdY5TgAunLfg-suiSatr_pad-3" x="680" y="435"/><use xlink:href="#JdY5TgAunLfg-suiSatr_pad-3" x="780" y="435"/><use xlink:href="#JdY5TgAunLfg-suiSatr_pad-3" x="780" y="135"/><use xlink:href="#JdY5TgAunLfg-suiSatr_pad-3" x="680" y="135"/><use xlink:href="#JdY5TgAunLfg-suiSatr_pad-3" x="580" y="135"/><use xlink:href="#JdY5TgAunLfg-suiSatr_pad-4" x="1220" y="160"/><use xlink:href="#JdY5TgAunLfg-suiSatr_pad-4" x="1320" y="160"/><use xlink:href="#JdY5TgAunLfg-suiSatr_pad-4" x="1420" y="160"/><use xlink:href="#JdY5TgAunLfg-suiSatr_pad-5" x="1900" y="955"/><use xlink:href="#JdY5TgAunLfg-suiSatr_pad-5" x="1900" y="1055"/><use xlink:href="#JdY5TgAunLfg-suiSatr_pad-6" x="1762" y="1557"/><use xlink:href="#JdY5TgAunLfg-suiSatr_pad-6" x="1762" y="1753.8"/><use xlink:href="#JdY5TgAunLfg-suiSatr_pad-7" x="160" y="990"/><use xlink:href="#JdY5TgAunLfg-suiSatr_pad-7" x="160" y="1090"/><use xlink:href="#JdY5TgAunLfg-suiSatr_pad-7" x="160" y="1190"/><use xlink:href="#JdY5TgAunLfg-suiSatr_pad-8" x="1497.4" y="908.1"/><use xlink:href="#JdY5TgAunLfg-suiSatr_pad-8" x="1497.4" y="1108.1"/><use xlink:href="#JdY5TgAunLfg-suiSatr_pad-9" x="118.1" y="118.1"/><use xlink:href="#JdY5TgAunLfg-suiSatr_pad-9" x="119.5" y="1885.4"/></g><clipPath id="esLUSdW__al8C0jy4D_9_top_outline"><path d="M 0.79 1999.06 1.17 1999.45 1999.1 1999.45 1999.1 0.73 0.79 0.73 0.79 1999.06" fill="none" stroke-width="1"/></clipPath><mask id="esLUSdW__al8C0jy4D_9_top_mech-mask"><g fill="#000" stroke="#000"><rect x="0.79" y="0.73" width="1998.31" height="1998.72" fill="#fff"/><use xlink:href="#esLUSdW__al8C0jy4D_9_top_drill1"/></g></mask><mask id="esLUSdW__al8C0jy4D_9_top_cf-mask"><g fill="#fff" stroke="#fff"><use xlink:href="#esLUSdW__al8C0jy4D_9_top_soldermask"/></g></mask><mask id="esLUSdW__al8C0jy4D_9_top_sm-mask"><g fill="#000" stroke="#000"><rect x="0.79" y="0.73" width="1998.31" height="1998.72" fill="#fff"/><use xlink:href="#esLUSdW__al8C0jy4D_9_top_soldermask"/></g></mask></defs><g transform="translate(0,2000.18) scale(1,-1)"><g mask="url(#esLUSdW__al8C0jy4D_9_top_mech-mask)" clip-path="url(#esLUSdW__al8C0jy4D_9_top_outline)"><rect x="0.79" y="0.73" width="1998.31" height="1998.72" fill="currentColor" class="esLUSdW__al8C0jy4D_9_fr4"/><use xlink:href="#esLUSdW__al8C0jy4D_9_top_copper" fill="currentColor" stroke="currentColor" class="esLUSdW__al8C0jy4D_9_cu"/><use xlink:href="#esLUSdW__al8C0jy4D_9_top_copper" fill="currentColor" stroke="currentColor" class="esLUSdW__al8C0jy4D_9_cf" mask="url(#esLUSdW__al8C0jy4D_9_top_cf-mask)"/><g mask="url(#esLUSdW__al8C0jy4D_9_top_sm-mask)"><rect x="0.79" y="0.73" width="1998.31" height="1998.72" fill="currentColor" class="esLUSdW__al8C0jy4D_9_sm"/><use xlink:href="#esLUSdW__al8C0jy4D_9_top_silkscreen" fill="currentColor" stroke="currentColor" class="esLUSdW__al8C0jy4D_9_ss"/></g></g></g></svg>